<svg xmlns="http://www.w3.org/2000/svg" viewBox="0 0 480 320" fill="none">
  <g stroke="currentColor" stroke-width="1.25" stroke-linecap="round" stroke-linejoin="round">
    <path d="M42 282c66-56 126-130 175-220"/>
    <path d="M102 230c20 4 40-3 53-18"/>
    <path d="M88 248c24 7 50 2 67-14"/>
    <path d="M164 160c20 6 42 1 58-14"/>
    <path d="M176 136c18 5 37 1 52-10"/>
    <path d="M210 96c15 4 30 0 42-9"/>
    <path d="M148 205c-7-18-5-38 7-54 15 5 27 17 33 32-9 16-24 26-40 22z"/>
    <path d="M181 173c-6-17-3-36 8-50 15 6 26 17 32 33-9 14-24 22-40 17z"/>
    <path d="M216 137c-4-15-1-31 9-43 13 6 22 17 26 31-8 12-21 19-35 12z"/>
    <path d="M123 221c15-12 24-30 24-49"/>
    <path d="M158 186c14-11 23-28 24-45"/>
    <path d="M194 145c12-10 20-24 21-39"/>
    <path d="M272 272c34-32 68-79 95-136"/>
    <path d="M332 210c17 3 35-3 47-16"/>
    <path d="M314 228c19 5 40 0 55-14"/>
    <path d="M298 196c-8-16-7-35 3-50 14 5 25 15 30 30-8 15-21 24-33 20z"/>
    <path d="M341 176c-4-14-1-30 8-41 13 5 22 16 25 30-7 11-19 18-33 11z"/>
  </g>
</svg>
