<svg xmlns="http://www.w3.org/2000/svg" viewBox="0 0 260 200" fill="none">
  <g stroke="currentColor" stroke-width="1.2" stroke-linecap="round" stroke-linejoin="round">
    <path d="M26 170c54-32 97-83 127-143"/>
    <path d="M68 143c16 3 31-2 42-13"/>
    <path d="M52 157c17 5 36 1 50-11"/>
    <path d="M98 122c-6-14-4-30 5-42 12 4 22 13 27 25-7 13-19 21-32 17z"/>
    <path d="M127 93c-4-12-2-25 6-35 11 4 19 13 22 24-6 10-16 16-28 11z"/>
    <path d="M73 136c12-9 19-22 19-36"/>
    <path d="M105 108c10-8 16-19 17-31"/>
    <path d="M168 168c20-18 39-46 56-80"/>
    <path d="M197 133c12 2 24-2 33-10"/>
    <path d="M187 146c14 4 28 1 38-8"/>
    <path d="M178 123c-5-11-4-24 3-34 10 4 18 11 22 21-6 10-15 16-25 13z"/>
  </g>
</svg>
