<svg xmlns="http://www.w3.org/2000/svg" viewBox="0 0 280 280" fill="none">
  <g stroke="#4B0F17" stroke-width="1.2" stroke-linecap="round" stroke-linejoin="round">
    <path d="M56 238c43-20 81-59 103-104"/>
    <path d="M154 136c12-14 31-20 49-15 18 5 31 21 35 39-18 4-36 0-51-10-14-11-24-28-27-45"/>
    <path d="M156 134c-12-8-19-22-19-37 0-16 8-30 21-38 12 9 20 23 20 38 0 15-7 29-22 37z"/>
    <path d="M156 134c15-5 32-3 46 6 14 10 23 24 24 41-16 4-33 1-48-8-14-9-23-24-25-39z"/>
    <path d="M156 134c-16-5-30-16-37-31-7-15-7-33 1-48 16 5 30 16 37 31 7 14 7 31-1 46z"/>
    <path d="M110 188c11 3 22 2 31-4"/>
    <path d="M95 214c10 3 20 2 29-4"/>
  </g>
</svg>
