<svg xmlns="http://www.w3.org/2000/svg" viewBox="0 0 240 240" fill="none" stroke="currentColor" stroke-width="1.4" stroke-linecap="round" stroke-linejoin="round">
<path d="M 141.9 117.6 Q 188.2 115.0 200.0 120.0 Q 188.2 125.0 141.9 122.4 Q 120.0 120.0 141.9 117.6 Z" />
<path d="M 141.7 123.8 Q 186.9 134.4 196.8 142.5 Q 184.0 144.0 140.3 128.5 Q 120.0 120.0 141.7 123.8 Z" />
<path d="M 139.7 129.8 Q 180.1 152.7 187.3 163.3 Q 174.7 161.1 137.1 133.9 Q 120.0 120.0 139.7 129.8 Z" />
<path d="M 136.1 134.9 Q 168.5 168.3 172.4 180.5 Q 160.9 174.8 132.5 138.1 Q 120.0 120.0 136.1 134.9 Z" />
<path d="M 131.3 138.9 Q 152.9 180.0 153.2 192.8 Q 143.8 184.1 126.9 140.9 Q 120.0 120.0 131.3 138.9 Z" />
<path d="M 125.5 141.3 Q 134.7 186.8 131.4 199.2 Q 124.7 188.2 120.7 142.0 Q 120.0 120.0 125.5 141.3 Z" />
<path d="M 119.3 142.0 Q 115.3 188.2 108.6 199.2 Q 105.3 186.8 114.5 141.3 Q 120.0 120.0 119.3 142.0 Z" />
<path d="M 113.1 140.9 Q 96.2 184.1 86.8 192.8 Q 87.1 180.0 108.7 138.9 Q 120.0 120.0 113.1 140.9 Z" />
<path d="M 107.5 138.1 Q 79.1 174.8 67.6 180.5 Q 71.5 168.3 103.9 134.9 Q 120.0 120.0 107.5 138.1 Z" />
<path d="M 102.9 133.9 Q 65.3 161.1 52.7 163.3 Q 59.9 152.7 100.3 129.8 Q 120.0 120.0 102.9 133.9 Z" />
<path d="M 99.7 128.5 Q 56.0 144.0 43.2 142.5 Q 53.1 134.4 98.3 123.8 Q 120.0 120.0 99.7 128.5 Z" />
<path d="M 98.1 122.4 Q 51.8 125.0 40.0 120.0 Q 51.8 115.0 98.1 117.6 Q 120.0 120.0 98.1 122.4 Z" />
<path d="M 98.3 116.2 Q 53.1 105.6 43.2 97.5 Q 56.0 96.0 99.7 111.5 Q 120.0 120.0 98.3 116.2 Z" />
<path d="M 100.3 110.2 Q 59.9 87.3 52.7 76.7 Q 65.3 78.9 102.9 106.1 Q 120.0 120.0 100.3 110.2 Z" />
<path d="M 103.9 105.1 Q 71.5 71.7 67.6 59.5 Q 79.1 65.2 107.5 101.9 Q 120.0 120.0 103.9 105.1 Z" />
<path d="M 108.7 101.1 Q 87.1 60.0 86.8 47.2 Q 96.2 55.9 113.1 99.1 Q 120.0 120.0 108.7 101.1 Z" />
<path d="M 114.5 98.7 Q 105.3 53.2 108.6 40.8 Q 115.3 51.8 119.3 98.0 Q 120.0 120.0 114.5 98.7 Z" />
<path d="M 120.7 98.0 Q 124.7 51.8 131.4 40.8 Q 134.7 53.2 125.5 98.7 Q 120.0 120.0 120.7 98.0 Z" />
<path d="M 126.9 99.1 Q 143.8 55.9 153.2 47.2 Q 152.9 60.0 131.3 101.1 Q 120.0 120.0 126.9 99.1 Z" />
<path d="M 132.5 101.9 Q 160.9 65.2 172.4 59.5 Q 168.5 71.7 136.1 105.1 Q 120.0 120.0 132.5 101.9 Z" />
<path d="M 137.1 106.1 Q 174.7 78.9 187.3 76.7 Q 180.1 87.3 139.7 110.2 Q 120.0 120.0 137.1 106.1 Z" />
<path d="M 140.3 111.5 Q 184.0 96.0 196.8 97.5 Q 186.9 105.6 141.7 116.2 Q 120.0 120.0 140.3 111.5 Z" />
<circle cx="120" cy="120" r="10" />
</svg>