<svg xmlns="http://www.w3.org/2000/svg" viewBox="0 0 430 330" fill="none">
  <g stroke="#4B0F17" stroke-width="1.2" stroke-linecap="round" stroke-linejoin="round">
    <path d="M52 282c70-34 132-98 168-173"/>
    <path d="M213 112c17-20 45-29 70-22 26 7 45 30 49 56-25 6-52 0-73-15-20-15-35-39-39-63"/>
    <path d="M218 109c-17-12-28-33-28-55 1-23 12-44 31-56 18 13 29 33 29 56 0 22-11 44-32 55z"/>
    <path d="M218 109c22-8 46-5 66 8 20 13 33 35 35 59-23 6-48 2-69-11-20-14-33-34-36-56z"/>
    <path d="M218 109c-23-7-42-23-52-45-10-21-10-47 1-68 23 7 42 23 53 45 9 20 9 45-2 66z"/>
    <path d="M218 109c-18 17-43 27-68 26-24 0-47-12-61-31 18-18 42-29 67-29 25 0 49 12 62 34z"/>
    <path d="M218 109c5 22-1 46-16 64-16 18-39 28-63 29-6-23 0-47 15-66 15-18 39-29 64-27z"/>
    <path d="M132 203c16 5 33 3 47-5"/>
    <path d="M98 239c14 4 29 2 41-6"/>
    <path d="M247 186c13 7 29 8 43 3"/>
    <path d="M273 217c12 6 27 7 40 2"/>
  </g>
</svg>
