<svg xmlns="http://www.w3.org/2000/svg" viewBox="0 0 600 660" fill="none">
  <g stroke="#F7F1E6" stroke-width="1.25" stroke-linecap="round" stroke-linejoin="round">
    <path d="M286 566c43-20 74-60 77-108 3-48-23-89-66-109-10-38-44-66-85-71-56-6-108 33-121 88-39 10-69 47-74 89-7 63 35 120 98 134 29 6 58 2 83-13 26 17 59 22 88 13z"/>
    <path d="M285 562c-8-35-6-70 8-102 19-46 10-99-34-130"/>
    <path d="M285 562c21-30 49-50 84-64 42-15 72-54 77-97"/>
    <path d="M181 397c36-13 73-13 108-1"/>
    <path d="M172 445c42-14 84-11 122 9"/>
    <path d="M393 402c-34-13-70-14-104-3"/>
    <path d="M404 450c-43-14-86-12-125 8"/>

    <path d="M206 236c21-5 39-18 49-38 16-30 6-67-23-84-3-25-21-46-45-54-35-11-71 8-83 41-27 4-48 24-55 50-10 38 13 77 51 90 17 5 35 5 52-1 14 13 35 18 56 13z"/>
    <path d="M206 233c2-20-4-39-16-54-17-19-22-46-13-71"/>
    <path d="M207 214c19 1 37-4 53-14"/>

    <path d="M351 268c16 14 38 21 61 17 35-6 61-37 58-72 18-14 27-38 22-62-7-33-38-56-73-53-20-19-49-25-77-14-39 16-58 60-43 99 8 16 20 29 35 37 2 19 10 36 17 48z"/>
    <path d="M349 265c19-9 34-24 44-43"/>
    <path d="M342 239c22 10 46 11 69 4"/>

    <path d="M284 562c-6 25-6 51 1 76"/>
    <path d="M272 616c-22 8-41 23-54 41"/>
    <path d="M296 616c23 7 43 22 57 40"/>
  </g>
</svg>
