<svg xmlns="http://www.w3.org/2000/svg" viewBox="0 0 260 260" fill="none">
  <g stroke="#4B0F17" stroke-width="1.2" stroke-linecap="round" stroke-linejoin="round">
    <path d="M34 210c47-16 92-55 116-104"/>
    <path d="M96 163c-8-14-8-31 2-44 9-13 24-21 39-21 4 14 1 28-8 39-9 11-20 20-33 26z"/>
    <path d="M145 124c-11-9-17-23-15-37 1-14 9-27 21-34 10 9 15 23 13 37-1 13-8 26-19 34z"/>
    <path d="M176 108c-10-6-17-16-18-28-1-11 3-23 11-31 10 5 17 14 19 25 3 11 0 24-8 34z"/>
    <path d="M74 189c11 2 22-2 31-10"/>
    <path d="M119 149c10 1 20-2 27-8"/>
  </g>
</svg>
