<svg xmlns="http://www.w3.org/2000/svg" viewBox="0 0 800 400" fill="none" stroke="currentColor" stroke-width="1.4" stroke-linecap="round" stroke-linejoin="round">
<path d="M 120 300 C 240 230 300 180 390 170 C 520 155 610 200 700 120" />
<g transform="translate(260 220) rotate(-8) scale(1.0)">
<path d="M 0 -40 C 20 -65 60 -65 75 -40 C 55 -20 25 -20 0 -40 Z" />
<path d="M -10 -5 C -45 -30 -80 -10 -70 20 C -40 15 -20 10 -10 -5 Z" />
<path d="M 10 -5 C 45 -30 80 -10 70 20 C 40 15 20 10 10 -5 Z" />
<path d="M -10 10 C 0 45 35 55 55 35 C 35 20 15 15 -10 10 Z" />
<path d="M 10 10 C 0 45 -35 55 -55 35 C -35 20 -15 15 10 10 Z" />
<path d="M -8 5 C 0 -8 18 -8 26 5 C 16 22 4 26 -8 5 Z" />
<path d="M 5 -30 C 20 -40 45 -38 58 -28" />
<path d="M -3 -25 C -20 -35 -40 -33 -52 -22" />
</g>
<g transform="translate(420 180) rotate(10) scale(0.95)">
<path d="M 0 -40 C 20 -65 60 -65 75 -40 C 55 -20 25 -20 0 -40 Z" />
<path d="M -10 -5 C -45 -30 -80 -10 -70 20 C -40 15 -20 10 -10 -5 Z" />
<path d="M 10 -5 C 45 -30 80 -10 70 20 C 40 15 20 10 10 -5 Z" />
<path d="M -10 10 C 0 45 35 55 55 35 C 35 20 15 15 -10 10 Z" />
<path d="M 10 10 C 0 45 -35 55 -55 35 C -35 20 -15 15 10 10 Z" />
<path d="M -8 5 C 0 -8 18 -8 26 5 C 16 22 4 26 -8 5 Z" />
<path d="M 5 -30 C 20 -40 45 -38 58 -28" />
<path d="M -3 -25 C -20 -35 -40 -33 -52 -22" />
</g>
<g transform="translate(560 165) rotate(-6) scale(0.85)">
<path d="M 0 -40 C 20 -65 60 -65 75 -40 C 55 -20 25 -20 0 -40 Z" />
<path d="M -10 -5 C -45 -30 -80 -10 -70 20 C -40 15 -20 10 -10 -5 Z" />
<path d="M 10 -5 C 45 -30 80 -10 70 20 C 40 15 20 10 10 -5 Z" />
<path d="M -10 10 C 0 45 35 55 55 35 C 35 20 15 15 -10 10 Z" />
<path d="M 10 10 C 0 45 -35 55 -55 35 C -35 20 -15 15 10 10 Z" />
<path d="M -8 5 C 0 -8 18 -8 26 5 C 16 22 4 26 -8 5 Z" />
<path d="M 5 -30 C 20 -40 45 -38 58 -28" />
<path d="M -3 -25 C -20 -35 -40 -33 -52 -22" />
</g>
<path d="M 160.0 310.0 C 227.3 300.3 259.7 244.6 295.3 207.1 C 249.7 231.4 187.4 247.7 160.0 310.0 Z" />
<path d="M 160.0 310.0 L 295.3 207.1" />
<path d="M 220.9 263.7 l 11.6 15.3" />
<path d="M 220.9 263.7 l -11.6 -15.3" />
<path d="M 248.0 243.1 l 7.3 9.6" />
<path d="M 248.0 243.1 l -7.3 -9.6" />
<path d="M 185.0 325.0 C 253.9 335.0 302.9 290.7 349.4 265.0 C 297.2 275.2 231.2 273.0 185.0 325.0 Z" />
<path d="M 185.0 325.0 L 349.4 265.0" />
<path d="M 259.0 298.0 l 6.6 18.1" />
<path d="M 259.0 298.0 l -6.6 -18.1" />
<path d="M 291.9 286.0 l 4.1 11.4" />
<path d="M 291.9 286.0 l -4.1 -11.4" />
</svg>