<svg xmlns="http://www.w3.org/2000/svg" viewBox="0 0 420 300" fill="none">
  <g stroke="#4B0F17" stroke-width="1.2" stroke-linecap="round" stroke-linejoin="round">
    <path d="M36 248c74-26 144-86 181-160"/>
    <path d="M116 199c-11-20-11-43 2-62 12-18 33-29 55-29 6 19 2 40-11 56-12 16-29 28-46 35z"/>
    <path d="M182 152c-16-13-24-34-22-55 2-20 14-39 31-49 14 14 21 34 19 54-2 19-12 37-28 50z"/>
    <path d="M252 111c-18-10-30-28-33-48-2-19 4-39 18-53 17 8 30 24 35 43 5 19 0 41-13 58z"/>
    <path d="M300 85c-14-8-22-23-22-39 0-15 8-31 21-40 13 7 22 21 24 36 1 16-6 33-19 43z"/>
    <path d="M78 220c17 3 35-3 47-16"/>
    <path d="M147 178c16 2 32-3 43-14"/>
    <path d="M218 132c15 1 29-3 40-12"/>
    <path d="M268 98c12 1 24-2 34-9"/>
    <path d="M209 88c4 13 14 24 27 30"/>
    <path d="M173 107c3 14 12 27 24 35"/>
    <path d="M145 143c2 13 9 24 20 31"/>
  </g>
</svg>
