<svg xmlns="http://www.w3.org/2000/svg" viewBox="0 0 320 320" fill="none">
  <g stroke="#4B0F17" stroke-width="1.2" stroke-linecap="round" stroke-linejoin="round">
    <path d="M165 250c18-9 30-28 30-49 0-25-17-47-41-53-5-20-22-35-43-37-30-2-56 21-58 51-16 10-25 29-22 48 5 30 32 50 62 46 13-2 25-7 34-16 11 11 25 14 38 10z"/>
    <path d="M162 248c-6-16-6-33 0-49 8-19 3-41-13-55"/>
    <path d="M162 247c9-14 21-24 36-31 17-7 28-24 29-43"/>
    <path d="M114 178c17-6 34-6 50 0"/>
    <path d="M109 205c19-6 38-4 54 4"/>
    <path d="M164 249c3 18 0 35-9 51-8 13-20 22-35 25"/>
    <path d="M152 284c-12-1-23 4-32 13"/>
    <path d="M172 275c16 3 31-1 43-11 11-9 18-23 20-37"/>
    <path d="M212 258c11 2 20 9 27 19"/>
  </g>
</svg>
