<svg xmlns="http://www.w3.org/2000/svg" viewBox="0 0 440 440" fill="none">
  <g stroke="#4B0F17" stroke-width="1.2" stroke-linecap="round" stroke-linejoin="round">
    <path d="M273 256c19-6 34-21 40-41 9-32-8-66-39-78-6-24-27-43-53-47-35-5-68 18-76 51-26 7-46 30-50 58-5 41 24 79 65 86 20 4 39-1 55-11 16 10 37 14 58 8z"/>
    <path d="M263 253c-2-18 4-35 16-48 16-17 20-41 10-63"/>
    <path d="M188 251c14-12 21-31 18-50-3-21-16-40-35-50"/>
    <path d="M162 179c23-8 45-8 66-1"/>
    <path d="M154 210c25-8 49-6 71 4"/>
    <path d="M285 184c-21-8-43-8-64-2"/>
    <path d="M292 215c-25-9-50-8-73 3"/>

    <path d="M145 322c15-2 28-11 35-25 11-22 2-49-20-61-2-19-16-35-35-40-26-7-53 8-60 34-20 4-36 20-40 40-6 29 13 58 42 65 14 3 27 1 39-5 11 8 25 12 39 10z"/>
    <path d="M141 320c3-14 2-28-5-41-8-14-21-23-35-28"/>
    <path d="M138 300c14-2 26-8 35-18"/>

    <path d="M238 334c11 6 24 7 36 2 20-8 31-30 26-50 11-12 14-29 7-45-10-22-35-33-58-25-17-12-40-12-58 0-25 16-33 50-17 75 8 13 20 22 34 26 7 15 18 27 30 34z"/>
    <path d="M240 334c-2-14 1-28 9-40 10-14 26-23 43-24"/>
    <path d="M223 307c13-5 27-5 41 0"/>
  </g>
</svg>
