<svg xmlns="http://www.w3.org/2000/svg" viewBox="0 0 420 420" fill="none">
  <g stroke="#4B0F17" stroke-width="1.2" stroke-linecap="round" stroke-linejoin="round">
    <path d="M208 335c-2-24 7-46 24-61 20-18 26-46 14-71-8-18-24-31-43-36-8-28-35-48-67-47-36 1-66 29-71 64-24 10-40 35-38 63 2 40 35 72 75 73 18 1 35-5 49-15 14 13 33 22 57 20z"/>
    <path d="M206 332c-10-22-11-46-2-69 12-31 7-66-24-88"/>
    <path d="M206 332c11-20 27-36 48-47 26-14 39-43 33-71"/>
    <path d="M120 205c23-9 48-10 71-2"/>
    <path d="M111 237c28-8 55-6 78 7"/>
    <path d="M292 207c-24-9-49-10-72-2"/>
    <path d="M298 240c-28-9-56-7-80 6"/>
    <path d="M206 334c6 19 5 39-5 57-9 16-24 28-42 33"/>
    <path d="M196 381c-17-2-33 4-45 16"/>
    <path d="M204 365c18 4 36 0 51-11 17-11 27-30 29-50"/>
    <path d="M247 343c17 2 31 12 40 27"/>
    <path d="M150 372c-8 10-12 23-11 36"/>
    <path d="M284 371c10 9 16 22 18 36"/>
  </g>
</svg>
