<svg xmlns="http://www.w3.org/2000/svg" viewBox="0 0 800 400" fill="none" stroke="currentColor" stroke-width="1.15" stroke-linecap="round" stroke-linejoin="round">
<path d="M 220 360 C 204 280 192 140 200 60" opacity="0.95"/>
<path d="M 198.0 300.0 Q 216.0 292.0 234.0 300.0" opacity="0.8"/>
<path d="M 193.7 235.0 Q 211.7 227.0 229.7 235.0" opacity="0.8"/>
<path d="M 189.3 170.0 Q 207.3 162.0 225.3 170.0" opacity="0.8"/>
<path d="M 185.0 105.0 Q 203.0 97.0 221.0 105.0" opacity="0.8"/>
<path d="M 300 380 C 312 300 286 120 280 40" opacity="0.95"/>
<path d="M 278.0 312.0 Q 296.0 304.0 314.0 312.0" opacity="0.8"/>
<path d="M 273.7 238.3 Q 291.7 230.3 309.7 238.3" opacity="0.8"/>
<path d="M 269.3 164.7 Q 287.3 156.7 305.3 164.7" opacity="0.8"/>
<path d="M 265.0 91.0 Q 283.0 83.0 301.0 91.0" opacity="0.8"/>
<path d="M 380 360 C 372 280 356 160 360 80" opacity="0.95"/>
<path d="M 358.0 304.0 Q 376.0 296.0 394.0 304.0" opacity="0.8"/>
<path d="M 353.7 243.3 Q 371.7 235.3 389.7 243.3" opacity="0.8"/>
<path d="M 349.3 182.7 Q 367.3 174.7 385.3 182.7" opacity="0.8"/>
<path d="M 345.0 122.0 Q 363.0 114.0 381.0 122.0" opacity="0.8"/>
<path d="M 250.0 210.0 Q 258.1 176.5 287.6 158.7 Q 279.4 192.1 250.0 210.0 Z" opacity="0.9"/>
<path d="M 250.0 210.0 L 287.6 158.7" opacity="0.35"/>
<path d="M 250.0 210.0 Q 290.4 211.9 324.6 233.6 Q 284.2 231.7 250.0 210.0 Z" opacity="0.9"/>
<path d="M 250.0 210.0 L 324.6 233.6" opacity="0.35"/>
<path d="M 250.0 210.0 Q 243.1 253.3 217.3 288.8 Q 224.2 245.5 250.0 210.0 Z" opacity="0.9"/>
<path d="M 250.0 210.0 L 217.3 288.8" opacity="0.35"/>
<path d="M 330.0 170.0 Q 345.8 129.7 384.0 109.3 Q 368.2 149.6 330.0 170.0 Z" opacity="0.9"/>
<path d="M 330.0 170.0 L 384.0 109.3" opacity="0.35"/>
<path d="M 330.0 170.0 Q 364.8 166.7 394.4 185.4 Q 359.5 188.7 330.0 170.0 Z" opacity="0.9"/>
<path d="M 330.0 170.0 L 394.4 185.4" opacity="0.35"/>
<path d="M 330.0 170.0 Q 350.0 214.0 338.7 261.0 Q 318.7 217.0 330.0 170.0 Z" opacity="0.9"/>
<path d="M 330.0 170.0 L 338.7 261.0" opacity="0.35"/>
<path d="M 420.0 190.0 Q 433.5 158.1 466.9 149.0 Q 453.4 180.9 420.0 190.0 Z" opacity="0.9"/>
<path d="M 420.0 190.0 L 466.9 149.0" opacity="0.35"/>
<path d="M 420.0 190.0 Q 457.7 199.1 484.6 227.1 Q 446.9 218.0 420.0 190.0 Z" opacity="0.9"/>
<path d="M 420.0 190.0 L 484.6 227.1" opacity="0.35"/>
<path d="M 420.0 190.0 Q 408.6 223.1 378.7 241.3 Q 390.1 208.2 420.0 190.0 Z" opacity="0.9"/>
<path d="M 420.0 190.0 L 378.7 241.3" opacity="0.35"/>
<path d="M 470.0 130.0 Q 504.2 96.9 550.3 85.2 Q 516.1 118.3 470.0 130.0 Z" opacity="0.9"/>
<path d="M 470.0 130.0 L 550.3 85.2" opacity="0.35"/>
<path d="M 470.0 130.0 Q 514.7 134.4 552.6 158.5 Q 507.9 154.1 470.0 130.0 Z" opacity="0.9"/>
<path d="M 470.0 130.0 L 552.6 158.5" opacity="0.35"/>
<path d="M 470.0 130.0 Q 470.3 163.4 449.4 189.5 Q 449.1 156.1 470.0 130.0 Z" opacity="0.9"/>
<path d="M 470.0 130.0 L 449.4 189.5" opacity="0.35"/>
<path d="M 360.0 110.0 Q 388.7 73.5 432.2 57.5 Q 403.6 94.1 360.0 110.0 Z" opacity="0.9"/>
<path d="M 360.0 110.0 L 432.2 57.5" opacity="0.35"/>
<path d="M 360.0 110.0 Q 399.7 116.9 424.0 149.0 Q 384.3 142.1 360.0 110.0 Z" opacity="0.9"/>
<path d="M 360.0 110.0 L 424.0 149.0" opacity="0.35"/>
<path d="M 360.0 110.0 Q 366.7 158.4 350.6 204.5 Q 343.9 156.1 360.0 110.0 Z" opacity="0.9"/>
<path d="M 360.0 110.0 L 350.6 204.5" opacity="0.35"/>
</svg>