<svg xmlns="http://www.w3.org/2000/svg" viewBox="0 0 800 400" fill="none" stroke="currentColor" stroke-width="1.15" stroke-linecap="round" stroke-linejoin="round">
<path d="M 70 260 C 170 230 270 240 360 255 C 460 273 560 270 640 240 C 700 220 740 215 770 220" opacity="0.9"/>
<path d="M 180 252 C 150 240 128 225 110 200 C 140 210 165 224 192 242" opacity="0.8"/>
<path d="M 520 260 C 560 244 590 228 612 205 C 580 212 548 228 516 248" opacity="0.8"/>
<path d="M 341.6 169.6 C 341.8 180.4 415.0 171.0 414.9 168.3 C 414.9 165.6 341.4 158.8 341.6 169.6 Z" opacity="0.95"/>
<path d="M 341.6 169.6 L 403.5 168.5" opacity="0.35"/>
<path d="M 341.6 171.4 C 340.8 182.2 412.8 178.8 413.0 176.1 C 413.2 173.4 342.3 160.6 341.6 171.4 Z" opacity="0.95"/>
<path d="M 341.6 171.4 L 401.8 175.4" opacity="0.35"/>
<path d="M 341.1 174.5 C 338.4 187.5 444.9 199.9 445.6 196.6 C 446.3 193.3 343.9 161.4 341.1 174.5 Z" opacity="0.95"/>
<path d="M 341.1 174.5 L 430.6 193.4" opacity="0.35"/>
<path d="M 340.9 175.3 C 338.5 185.0 431.5 201.0 432.2 198.6 C 432.8 196.2 343.4 165.7 340.9 175.3 Z" opacity="0.95"/>
<path d="M 340.9 175.3 L 418.7 195.2" opacity="0.35"/>
<path d="M 340.4 177.1 C 337.2 186.1 409.0 203.6 409.8 201.4 C 410.6 199.1 343.5 168.1 340.4 177.1 Z" opacity="0.95"/>
<path d="M 340.4 177.1 L 399.0 197.6" opacity="0.35"/>
<path d="M 339.2 179.9 C 332.9 192.1 433.6 232.8 435.2 229.8 C 436.8 226.8 345.5 167.8 339.2 179.9 Z" opacity="0.95"/>
<path d="M 339.2 179.9 L 421.4 222.6" opacity="0.35"/>
<path d="M 338.3 181.5 C 332.9 190.1 402.8 224.9 404.1 222.7 C 405.5 220.5 343.7 172.8 338.3 181.5 Z" opacity="0.95"/>
<path d="M 338.3 181.5 L 394.0 216.4" opacity="0.35"/>
<path d="M 337.4 182.9 C 329.0 194.1 418.5 247.3 420.6 244.4 C 422.7 241.6 345.7 171.6 337.4 182.9 Z" opacity="0.95"/>
<path d="M 337.4 182.9 L 408.5 235.5" opacity="0.35"/>
<path d="M 335.9 184.6 C 327.6 193.6 387.2 236.1 389.2 233.8 C 391.3 231.6 344.2 175.6 335.9 184.6 Z" opacity="0.95"/>
<path d="M 335.9 184.6 L 380.9 226.2" opacity="0.35"/>
<path d="M 334.7 185.8 C 327.9 192.1 396.3 255.1 398.0 253.5 C 399.7 252.0 341.5 179.4 334.7 185.8 Z" opacity="0.95"/>
<path d="M 334.7 185.8 L 388.6 243.5" opacity="0.35"/>
<path d="M 333.5 186.9 C 322.2 195.9 376.1 245.9 378.9 243.6 C 381.8 241.3 344.8 177.8 333.5 186.9 Z" opacity="0.95"/>
<path d="M 333.5 186.9 L 371.9 234.8" opacity="0.35"/>
<path d="M 331.4 188.3 C 322.8 193.7 379.4 270.0 381.6 268.7 C 383.7 267.3 340.0 183.0 331.4 188.3 Z" opacity="0.95"/>
<path d="M 331.4 188.3 L 374.2 256.8" opacity="0.35"/>
<path d="M 329.7 189.3 C 317.0 195.7 369.5 276.6 372.7 275.0 C 375.9 273.4 342.3 183.0 329.7 189.3 Z" opacity="0.95"/>
<path d="M 329.7 189.3 L 366.4 262.4" opacity="0.35"/>
<path d="M 328.0 190.1 C 317.9 194.1 359.9 277.3 362.4 276.3 C 364.9 275.2 338.2 186.0 328.0 190.1 Z" opacity="0.95"/>
<path d="M 328.0 190.1 L 357.3 263.5" opacity="0.35"/>
<path d="M 326.5 190.6 C 317.8 193.4 351.3 276.2 353.5 275.5 C 355.7 274.8 335.3 187.8 326.5 190.6 Z" opacity="0.95"/>
<path d="M 326.5 190.6 L 349.5 262.8" opacity="0.35"/>
<path d="M 325.1 191.0 C 317.0 193.0 348.4 295.9 350.4 295.4 C 352.4 294.9 333.2 189.0 325.1 191.0 Z" opacity="0.95"/>
<path d="M 325.1 191.0 L 346.8 280.3" opacity="0.35"/>
<path d="M 323.6 191.3 C 313.7 193.0 337.4 288.8 339.9 288.4 C 342.3 288.0 333.4 189.6 323.6 191.3 Z" opacity="0.95"/>
<path d="M 323.6 191.3 L 337.5 274.2" opacity="0.35"/>
<path d="M 320.9 191.6 C 310.5 192.0 322.2 282.6 324.8 282.5 C 327.4 282.4 331.3 191.1 320.9 191.6 Z" opacity="0.95"/>
<path d="M 320.9 191.6 L 324.2 269.0" opacity="0.35"/>
<path d="M 318.3 191.5 C 307.4 190.7 309.4 268.9 312.1 269.1 C 314.8 269.3 329.2 192.4 318.3 191.5 Z" opacity="0.95"/>
<path d="M 318.3 191.5 L 313.0 257.2" opacity="0.35"/>
<path d="M 317.5 191.5 C 307.6 190.3 303.8 289.3 306.3 289.6 C 308.8 289.9 327.5 192.6 317.5 191.5 Z" opacity="0.95"/>
<path d="M 317.5 191.5 L 308.0 275.2" opacity="0.35"/>
<path d="M 315.4 191.1 C 305.4 188.9 290.7 292.4 293.2 293.0 C 295.7 293.5 325.5 193.3 315.4 191.1 Z" opacity="0.95"/>
<path d="M 315.4 191.1 L 296.4 278.2" opacity="0.35"/>
<path d="M 313.2 190.5 C 304.9 187.8 276.2 296.0 278.3 296.7 C 280.3 297.4 321.6 193.3 313.2 190.5 Z" opacity="0.95"/>
<path d="M 313.2 190.5 L 283.3 281.5" opacity="0.35"/>
<path d="M 312.1 190.1 C 299.7 185.2 280.1 262.8 283.2 264.0 C 286.3 265.2 324.6 195.0 312.1 190.1 Z" opacity="0.95"/>
<path d="M 312.1 190.1 L 287.6 252.7" opacity="0.35"/>
<path d="M 309.6 188.9 C 300.5 184.0 269.0 257.7 271.2 258.9 C 273.5 260.1 318.7 193.9 309.6 188.9 Z" opacity="0.95"/>
<path d="M 309.6 188.9 L 277.1 248.2" opacity="0.35"/>
<path d="M 308.5 188.3 C 301.4 183.8 258.6 263.8 260.4 264.9 C 262.2 266.0 315.6 192.7 308.5 188.3 Z" opacity="0.95"/>
<path d="M 308.5 188.3 L 267.6 253.5" opacity="0.35"/>
<path d="M 306.3 186.7 C 295.0 177.4 232.8 270.5 235.6 272.8 C 238.5 275.2 317.6 196.0 306.3 186.7 Z" opacity="0.95"/>
<path d="M 306.3 186.7 L 245.8 260.5" opacity="0.35"/>
<path d="M 304.8 185.4 C 299.0 179.6 222.9 265.4 224.4 266.8 C 225.8 268.2 310.6 191.1 304.8 185.4 Z" opacity="0.95"/>
<path d="M 304.8 185.4 L 235.8 255.2" opacity="0.35"/>
<path d="M 303.9 184.4 C 295.0 174.5 216.4 258.7 218.6 261.2 C 220.9 263.7 312.9 194.4 303.9 184.4 Z" opacity="0.95"/>
<path d="M 303.9 184.4 L 230.8 250.3" opacity="0.35"/>
<path d="M 302.6 182.8 C 295.3 172.9 209.2 247.7 211.1 250.2 C 212.9 252.7 309.9 192.8 302.6 182.8 Z" opacity="0.95"/>
<path d="M 302.6 182.8 L 224.1 240.6" opacity="0.35"/>
<path d="M 301.2 180.7 C 296.6 172.5 228.3 219.3 229.5 221.4 C 230.6 223.4 305.9 188.8 301.2 180.7 Z" opacity="0.95"/>
<path d="M 301.2 180.7 L 240.3 215.2" opacity="0.35"/>
<path d="M 300.6 179.4 C 295.9 169.8 232.0 209.8 233.2 212.2 C 234.3 214.6 305.3 189.1 300.6 179.4 Z" opacity="0.95"/>
<path d="M 300.6 179.4 L 243.6 207.2" opacity="0.35"/>
<path d="M 299.5 176.9 C 296.9 169.2 219.0 202.1 219.7 204.0 C 220.4 205.9 302.2 184.6 299.5 176.9 Z" opacity="0.95"/>
<path d="M 299.5 176.9 L 231.7 199.9" opacity="0.35"/>
<path d="M 299.4 176.4 C 295.4 163.5 225.3 195.9 226.3 199.1 C 227.3 202.3 303.4 189.3 299.4 176.4 Z" opacity="0.95"/>
<path d="M 299.4 176.4 L 237.5 195.6" opacity="0.35"/>
<path d="M 298.8 174.1 C 297.1 165.5 217.5 187.4 217.9 189.5 C 218.3 191.7 300.4 182.6 298.8 174.1 Z" opacity="0.95"/>
<path d="M 298.8 174.1 L 230.2 187.2" opacity="0.35"/>
<path d="M 298.4 171.2 C 297.9 161.7 209.7 173.8 209.8 176.2 C 210.0 178.6 299.0 180.7 298.4 171.2 Z" opacity="0.95"/>
<path d="M 298.4 171.2 L 223.0 175.4" opacity="0.35"/>
<path d="M 298.4 170.7 C 298.1 161.4 227.3 170.5 227.4 172.8 C 227.5 175.2 298.7 179.9 298.4 170.7 Z" opacity="0.95"/>
<path d="M 298.4 170.7 L 238.5 172.5" opacity="0.35"/>
<path d="M 298.5 167.8 C 299.4 159.5 223.5 158.0 223.3 160.1 C 223.1 162.2 297.7 176.1 298.5 167.8 Z" opacity="0.95"/>
<path d="M 298.5 167.8 L 234.9 161.3" opacity="0.35"/>
<path d="M 298.7 166.2 C 301.4 151.4 220.3 148.2 219.7 151.9 C 219.0 155.5 296.1 180.9 298.7 166.2 Z" opacity="0.95"/>
<path d="M 298.7 166.2 L 231.7 154.0" opacity="0.35"/>
<path d="M 299.0 164.8 C 302.3 151.8 208.8 139.0 208.0 142.2 C 207.2 145.5 295.8 177.8 299.0 164.8 Z" opacity="0.95"/>
<path d="M 299.0 164.8 L 221.4 145.6" opacity="0.35"/>
<path d="M 299.7 162.5 C 303.7 151.9 192.0 119.9 191.1 122.5 C 190.1 125.2 295.8 173.2 299.7 162.5 Z" opacity="0.95"/>
<path d="M 299.7 162.5 L 206.5 128.2" opacity="0.35"/>
<path d="M 300.4 161.0 C 303.8 153.4 221.2 122.3 220.3 124.2 C 219.4 126.1 296.9 168.5 300.4 161.0 Z" opacity="0.95"/>
<path d="M 300.4 161.0 L 232.3 129.7" opacity="0.35"/>
<path d="M 301.4 159.0 C 308.6 146.8 234.0 115.1 232.2 118.2 C 230.4 121.3 294.2 171.3 301.4 159.0 Z" opacity="0.95"/>
<path d="M 301.4 159.0 L 242.7 124.4" opacity="0.35"/>
<path d="M 302.8 156.9 C 307.8 150.3 230.7 99.3 229.4 100.9 C 228.1 102.6 297.8 163.5 302.8 156.9 Z" opacity="0.95"/>
<path d="M 302.8 156.9 L 240.3 109.2" opacity="0.35"/>
<path d="M 303.5 156.1 C 309.6 148.8 243.9 102.6 242.3 104.5 C 240.8 106.3 297.4 163.3 303.5 156.1 Z" opacity="0.95"/>
<path d="M 303.5 156.1 L 251.6 112.3" opacity="0.35"/>
<path d="M 304.8 154.7 C 311.2 148.3 228.8 74.9 227.2 76.5 C 225.6 78.1 298.4 161.0 304.8 154.7 Z" opacity="0.95"/>
<path d="M 304.8 154.7 L 238.3 87.7" opacity="0.35"/>
<path d="M 306.0 153.5 C 315.1 145.8 235.1 65.5 232.9 67.5 C 230.6 69.4 296.9 161.3 306.0 153.5 Z" opacity="0.95"/>
<path d="M 306.0 153.5 L 243.3 79.8" opacity="0.35"/>
<path d="M 308.7 151.6 C 320.9 144.1 266.0 74.9 262.9 76.7 C 259.9 78.6 296.5 159.0 308.7 151.6 Z" opacity="0.95"/>
<path d="M 308.7 151.6 L 269.8 87.9" opacity="0.35"/>
<path d="M 310.0 150.9 C 321.7 144.7 263.5 55.1 260.6 56.7 C 257.7 58.2 298.3 157.0 310.0 150.9 Z" opacity="0.95"/>
<path d="M 310.0 150.9 L 267.7 70.3" opacity="0.35"/>
<path d="M 311.5 150.1 C 320.3 146.4 285.0 82.2 282.8 83.2 C 280.7 84.1 302.7 153.9 311.5 150.1 Z" opacity="0.95"/>
<path d="M 311.5 150.1 L 287.3 93.6" opacity="0.35"/>
<path d="M 313.9 149.3 C 327.7 145.2 285.6 41.3 282.2 42.3 C 278.7 43.3 300.0 153.4 313.9 149.3 Z" opacity="0.95"/>
<path d="M 313.9 149.3 L 286.7 57.6" opacity="0.35"/>
<path d="M 315.0 149.0 C 328.2 145.8 294.9 51.0 291.6 51.8 C 288.3 52.6 301.7 152.2 315.0 149.0 Z" opacity="0.95"/>
<path d="M 315.0 149.0 L 295.0 66.0" opacity="0.35"/>
<path d="M 317.3 148.6 C 328.9 147.1 306.8 41.5 303.9 41.9 C 301.0 42.3 305.7 150.0 317.3 148.6 Z" opacity="0.95"/>
<path d="M 317.3 148.6 L 305.9 57.3" opacity="0.35"/>
<path d="M 319.3 148.4 C 329.2 148.1 318.3 47.1 315.8 47.1 C 313.3 47.2 309.4 148.8 319.3 148.4 Z" opacity="0.95"/>
<path d="M 319.3 148.4 L 316.3 61.9" opacity="0.35"/>
<path d="M 321.6 148.5 C 330.2 149.1 332.2 34.6 330.1 34.5 C 328.0 34.3 313.1 147.8 321.6 148.5 Z" opacity="0.95"/>
<path d="M 321.6 148.5 L 328.9 50.7" opacity="0.35"/>
<path d="M 323.6 148.7 C 336.1 150.8 345.8 36.3 342.7 35.7 C 339.6 35.2 311.1 146.6 323.6 148.7 Z" opacity="0.95"/>
<path d="M 323.6 148.7 L 340.0 51.9" opacity="0.35"/>
<path d="M 324.1 148.8 C 332.9 150.5 347.7 39.7 345.5 39.3 C 343.3 38.9 315.4 147.1 324.1 148.8 Z" opacity="0.95"/>
<path d="M 324.1 148.8 L 342.4 55.0" opacity="0.35"/>
<path d="M 327.3 149.7 C 335.3 152.6 363.5 56.0 361.5 55.2 C 359.5 54.5 319.4 146.8 327.3 149.7 Z" opacity="0.95"/>
<path d="M 327.3 149.7 L 356.5 69.0" opacity="0.35"/>
<path d="M 328.0 149.9 C 339.2 154.4 367.6 59.3 364.8 58.1 C 362.0 57.0 316.9 145.5 328.0 149.9 Z" opacity="0.95"/>
<path d="M 328.0 149.9 L 359.4 71.6" opacity="0.35"/>
<path d="M 330.6 151.2 C 338.9 155.8 387.9 53.8 385.8 52.7 C 383.7 51.5 322.2 146.5 330.6 151.2 Z" opacity="0.95"/>
<path d="M 330.6 151.2 L 377.9 66.7" opacity="0.35"/>
<path d="M 331.3 151.6 C 338.2 155.8 391.8 56.5 390.0 55.4 C 388.3 54.4 324.3 147.3 331.3 151.6 Z" opacity="0.95"/>
<path d="M 331.3 151.6 L 381.6 69.2" opacity="0.35"/>
<path d="M 333.9 153.5 C 344.4 162.3 384.1 99.1 381.5 96.9 C 378.9 94.7 323.5 144.7 333.9 153.5 Z" opacity="0.95"/>
<path d="M 333.9 153.5 L 374.1 105.7" opacity="0.35"/>
<path d="M 335.2 154.7 C 343.6 163.1 415.3 78.4 413.2 76.3 C 411.1 74.2 326.8 146.3 335.2 154.7 Z" opacity="0.95"/>
<path d="M 335.2 154.7 L 402.0 87.6" opacity="0.35"/>
<path d="M 336.6 156.2 C 344.7 166.0 398.8 108.9 396.8 106.4 C 394.7 104.0 328.5 146.4 336.6 156.2 Z" opacity="0.95"/>
<path d="M 336.6 156.2 L 387.6 114.1" opacity="0.35"/>
<path d="M 337.3 157.1 C 345.3 167.9 428.5 93.4 426.5 90.7 C 424.5 88.0 329.3 146.3 337.3 157.1 Z" opacity="0.95"/>
<path d="M 337.3 157.1 L 413.7 100.2" opacity="0.35"/>
<path d="M 338.5 158.9 C 342.8 166.0 419.9 112.5 418.8 110.7 C 417.8 108.9 334.3 151.8 338.5 158.9 Z" opacity="0.95"/>
<path d="M 338.5 158.9 L 407.0 117.8" opacity="0.35"/>
<path d="M 339.1 160.0 C 344.4 170.1 426.4 117.7 425.1 115.1 C 423.7 112.6 333.8 149.9 339.1 160.0 Z" opacity="0.95"/>
<path d="M 339.1 160.0 L 412.5 121.7" opacity="0.35"/>
<path d="M 340.4 162.9 C 343.4 171.5 433.4 133.1 432.6 131.0 C 431.9 128.8 337.5 154.4 340.4 162.9 Z" opacity="0.95"/>
<path d="M 340.4 162.9 L 419.1 135.7" opacity="0.35"/>
<path d="M 340.8 164.1 C 344.0 175.3 442.7 137.9 441.9 135.1 C 441.1 132.3 337.6 152.8 340.8 164.1 Z" opacity="0.95"/>
<path d="M 340.8 164.1 L 427.3 139.3" opacity="0.35"/>
<path d="M 341.1 165.4 C 344.0 178.9 448.0 145.8 447.2 142.4 C 446.5 139.0 338.2 151.9 341.1 165.4 Z" opacity="0.95"/>
<path d="M 341.1 165.4 L 432.0 145.7" opacity="0.35"/>
<path d="M 341.4 167.4 C 342.7 178.1 435.6 158.9 435.3 156.3 C 434.9 153.6 340.2 156.8 341.4 167.4 Z" opacity="0.95"/>
<path d="M 341.4 167.4 L 421.4 157.9" opacity="0.35"/>
<circle cx="320" cy="170" r="14.4" opacity="0.6"/>
<circle cx="322.1" cy="161.2" r="1.4" opacity="0.65"/>
<circle cx="321.0" cy="180.1" r="1.4" opacity="0.65"/>
<circle cx="327.6" cy="168.4" r="1.4" opacity="0.65"/>
<circle cx="328.2" cy="177.2" r="1.4" opacity="0.65"/>
<circle cx="327.7" cy="163.2" r="1.4" opacity="0.65"/>
<circle cx="308.7" cy="175.0" r="1.4" opacity="0.65"/>
<circle cx="321.3" cy="162.5" r="1.4" opacity="0.65"/>
<circle cx="326.2" cy="164.3" r="1.4" opacity="0.65"/>
<circle cx="316.1" cy="181.6" r="1.4" opacity="0.65"/>
<circle cx="309.4" cy="175.6" r="1.4" opacity="0.65"/>
<path d="M 569.9 179.8 C 570.0 184.0 620.5 179.7 620.5 178.6 C 620.4 177.5 569.8 175.5 569.9 179.8 Z" opacity="0.95"/>
<path d="M 569.9 179.8 L 613.2 178.8" opacity="0.35"/>
<path d="M 569.8 181.4 C 569.1 186.1 611.4 188.5 611.6 187.3 C 611.8 186.1 570.5 176.7 569.8 181.4 Z" opacity="0.95"/>
<path d="M 569.8 181.4 L 605.4 186.4" opacity="0.35"/>
<path d="M 569.4 183.2 C 567.4 188.9 617.3 201.4 617.8 200.0 C 618.3 198.6 571.3 177.6 569.4 183.2 Z" opacity="0.95"/>
<path d="M 569.4 183.2 L 610.8 197.6" opacity="0.35"/>
<path d="M 568.9 184.4 C 566.4 189.3 602.5 202.6 603.1 201.4 C 603.7 200.2 571.3 179.6 568.9 184.4 Z" opacity="0.95"/>
<path d="M 568.9 184.4 L 597.9 198.9" opacity="0.35"/>
<path d="M 567.8 186.1 C 564.6 190.2 604.2 216.0 605.0 215.0 C 605.8 213.9 571.0 181.9 567.8 186.1 Z" opacity="0.95"/>
<path d="M 567.8 186.1 L 599.6 210.8" opacity="0.35"/>
<path d="M 566.9 187.1 C 562.4 191.5 591.5 214.5 592.6 213.4 C 593.7 212.3 571.5 182.6 566.9 187.1 Z" opacity="0.95"/>
<path d="M 566.9 187.1 L 588.7 209.4" opacity="0.35"/>
<path d="M 565.5 188.2 C 559.8 192.0 590.9 229.3 592.3 228.3 C 593.7 227.4 571.2 184.4 565.5 188.2 Z" opacity="0.95"/>
<path d="M 565.5 188.2 L 588.4 222.5" opacity="0.35"/>
<path d="M 563.9 189.1 C 558.7 191.3 580.8 232.2 582.1 231.6 C 583.4 231.1 569.1 186.9 563.9 189.1 Z" opacity="0.95"/>
<path d="M 563.9 189.1 L 579.4 225.4" opacity="0.35"/>
<path d="M 562.6 189.6 C 557.6 190.9 574.6 239.6 575.8 239.3 C 577.1 238.9 567.6 188.2 562.6 189.6 Z" opacity="0.95"/>
<path d="M 562.6 189.6 L 573.9 232.1" opacity="0.35"/>
<path d="M 560.5 189.9 C 554.1 190.2 561.0 228.0 562.6 227.9 C 564.2 227.8 567.0 189.5 560.5 189.9 Z" opacity="0.95"/>
<path d="M 560.5 189.9 L 562.3 222.2" opacity="0.35"/>
<path d="M 559.0 189.8 C 553.9 189.3 553.1 234.3 554.4 234.4 C 555.7 234.6 564.1 190.4 559.0 189.8 Z" opacity="0.95"/>
<path d="M 559.0 189.8 L 555.1 227.9" opacity="0.35"/>
<path d="M 557.8 189.7 C 553.1 188.6 545.9 236.5 547.1 236.8 C 548.3 237.0 562.5 190.7 557.8 189.7 Z" opacity="0.95"/>
<path d="M 557.8 189.7 L 548.7 230.0" opacity="0.35"/>
<path d="M 555.9 189.0 C 552.3 187.4 540.9 219.8 541.8 220.3 C 542.7 220.7 559.5 190.7 555.9 189.0 Z" opacity="0.95"/>
<path d="M 555.9 189.0 L 544.0 215.4" opacity="0.35"/>
<path d="M 554.8 188.4 C 551.2 186.2 528.0 229.7 528.9 230.2 C 529.8 230.8 558.4 190.7 554.8 188.4 Z" opacity="0.95"/>
<path d="M 554.8 188.4 L 532.7 224.2" opacity="0.35"/>
<path d="M 553.1 187.1 C 549.1 183.2 524.5 214.5 525.5 215.4 C 526.5 216.4 557.0 190.9 553.1 187.1 Z" opacity="0.95"/>
<path d="M 553.1 187.1 L 529.7 211.2" opacity="0.35"/>
<path d="M 552.3 186.2 C 549.8 183.0 516.4 213.4 517.0 214.2 C 517.6 215.0 554.7 189.3 552.3 186.2 Z" opacity="0.95"/>
<path d="M 552.3 186.2 L 522.2 210.1" opacity="0.35"/>
<path d="M 551.3 184.8 C 549.3 181.0 505.3 208.9 505.8 209.8 C 506.3 210.7 553.4 188.5 551.3 184.8 Z" opacity="0.95"/>
<path d="M 551.3 184.8 L 512.3 206.2" opacity="0.35"/>
<path d="M 550.6 183.1 C 549.1 178.7 513.7 194.1 514.0 195.2 C 514.4 196.3 552.1 187.5 550.6 183.1 Z" opacity="0.95"/>
<path d="M 550.6 183.1 L 519.5 193.4" opacity="0.35"/>
<path d="M 550.3 182.0 C 549.0 175.4 518.8 186.6 519.1 188.2 C 519.5 189.9 551.6 188.5 550.3 182.0 Z" opacity="0.95"/>
<path d="M 550.3 182.0 L 524.0 187.2" opacity="0.35"/>
<path d="M 550.1 179.8 C 550.2 173.5 501.2 177.1 501.1 178.6 C 501.1 180.2 550.0 186.0 550.1 179.8 Z" opacity="0.95"/>
<path d="M 550.1 179.8 L 508.2 178.8" opacity="0.35"/>
<path d="M 550.3 178.1 C 551.4 172.6 516.4 169.9 516.1 171.2 C 515.9 172.6 549.2 183.5 550.3 178.1 Z" opacity="0.95"/>
<path d="M 550.3 178.1 L 521.4 172.3" opacity="0.35"/>
<path d="M 550.6 176.8 C 552.8 170.5 509.6 160.9 509.0 162.5 C 508.5 164.1 548.5 183.1 550.6 176.8 Z" opacity="0.95"/>
<path d="M 550.6 176.8 L 515.2 164.6" opacity="0.35"/>
<path d="M 551.4 175.1 C 553.4 171.6 506.0 148.3 505.5 149.2 C 505.0 150.1 549.4 178.7 551.4 175.1 Z" opacity="0.95"/>
<path d="M 551.4 175.1 L 512.1 152.9" opacity="0.35"/>
<path d="M 552.3 173.8 C 556.0 169.1 517.0 143.9 516.1 145.1 C 515.1 146.3 548.5 178.6 552.3 173.8 Z" opacity="0.95"/>
<path d="M 552.3 173.8 L 521.4 149.3" opacity="0.35"/>
<path d="M 553.4 172.7 C 556.8 169.5 520.9 135.1 520.0 135.9 C 519.2 136.6 549.9 175.8 553.4 172.7 Z" opacity="0.95"/>
<path d="M 553.4 172.7 L 524.8 141.2" opacity="0.35"/>
<path d="M 554.8 171.6 C 559.6 168.6 535.0 136.5 533.8 137.2 C 532.6 137.9 550.1 174.5 554.8 171.6 Z" opacity="0.95"/>
<path d="M 554.8 171.6 L 537.0 142.3" opacity="0.35"/>
<path d="M 556.3 170.8 C 560.6 169.1 539.7 127.0 538.7 127.4 C 537.6 127.9 551.9 172.6 556.3 170.8 Z" opacity="0.95"/>
<path d="M 556.3 170.8 L 541.2 133.7" opacity="0.35"/>
<path d="M 557.4 170.5 C 562.9 169.0 548.6 132.9 547.2 133.3 C 545.9 133.7 551.9 171.9 557.4 170.5 Z" opacity="0.95"/>
<path d="M 557.4 170.5 L 548.8 138.9" opacity="0.35"/>
<path d="M 559.5 170.1 C 564.5 169.9 558.3 119.0 557.1 119.0 C 555.8 119.1 554.6 170.3 559.5 170.1 Z" opacity="0.95"/>
<path d="M 559.5 170.1 L 557.4 126.4" opacity="0.35"/>
<path d="M 560.7 170.1 C 565.3 170.5 565.6 121.0 564.5 120.9 C 563.3 120.8 556.2 169.8 560.7 170.1 Z" opacity="0.95"/>
<path d="M 560.7 170.1 L 563.9 128.0" opacity="0.35"/>
<path d="M 562.4 170.4 C 566.5 171.4 571.0 139.9 569.9 139.7 C 568.9 139.4 558.2 169.4 562.4 170.4 Z" opacity="0.95"/>
<path d="M 562.4 170.4 L 568.8 144.5" opacity="0.35"/>
<path d="M 564.0 170.9 C 569.2 173.2 584.1 128.9 582.8 128.3 C 581.6 127.8 558.8 168.7 564.0 170.9 Z" opacity="0.95"/>
<path d="M 564.0 170.9 L 580.1 134.5" opacity="0.35"/>
<path d="M 565.3 171.7 C 570.1 174.7 594.7 128.4 593.5 127.6 C 592.3 126.9 560.6 168.6 565.3 171.7 Z" opacity="0.95"/>
<path d="M 565.3 171.7 L 589.5 133.9" opacity="0.35"/>
<path d="M 566.5 172.6 C 571.6 177.0 589.5 149.0 588.2 147.9 C 586.9 146.8 561.4 168.1 566.5 172.6 Z" opacity="0.95"/>
<path d="M 566.5 172.6 L 584.8 151.7" opacity="0.35"/>
<path d="M 568.0 174.2 C 571.3 178.7 610.6 145.0 609.8 143.9 C 609.0 142.8 564.7 169.6 568.0 174.2 Z" opacity="0.95"/>
<path d="M 568.0 174.2 L 603.8 148.2" opacity="0.35"/>
<path d="M 568.6 175.2 C 570.8 179.1 598.3 159.9 597.8 158.9 C 597.2 157.9 566.4 171.2 568.6 175.2 Z" opacity="0.95"/>
<path d="M 568.6 175.2 L 593.2 161.4" opacity="0.35"/>
<path d="M 569.3 176.6 C 571.5 182.7 618.5 160.4 617.9 158.8 C 617.4 157.3 567.1 170.5 569.3 176.6 Z" opacity="0.95"/>
<path d="M 569.3 176.6 L 611.0 161.4" opacity="0.35"/>
<path d="M 569.8 178.6 C 570.4 183.0 604.2 174.6 604.0 173.5 C 603.9 172.4 569.1 174.2 569.8 178.6 Z" opacity="0.95"/>
<path d="M 569.8 178.6 L 598.8 174.3" opacity="0.35"/>
<circle cx="560" cy="180" r="6.6" opacity="0.6"/>
<circle cx="558.2" cy="185.6" r="0.7" opacity="0.65"/>
<circle cx="562.8" cy="184.7" r="0.7" opacity="0.65"/>
<circle cx="558.0" cy="175.6" r="0.7" opacity="0.65"/>
<circle cx="563.9" cy="179.0" r="0.7" opacity="0.65"/>
<circle cx="556.3" cy="179.4" r="0.7" opacity="0.65"/>
<circle cx="562.8" cy="181.9" r="0.7" opacity="0.65"/>
<circle cx="558.5" cy="183.3" r="0.7" opacity="0.65"/>
<circle cx="565.6" cy="182.3" r="0.7" opacity="0.65"/>
<circle cx="558.6" cy="185.6" r="0.7" opacity="0.65"/>
<circle cx="558.4" cy="174.9" r="0.7" opacity="0.65"/>
</svg>