<svg xmlns="http://www.w3.org/2000/svg" viewBox="0 0 400 400" fill="none" stroke="currentColor" stroke-width="1.15" stroke-linecap="round" stroke-linejoin="round">
<path d="M 221.6 210.2 C 221.5 223.7 325.6 214.5 325.6 211.1 C 325.6 207.7 221.7 196.6 221.6 210.2 Z" opacity="0.95"/>
<path d="M 221.6 210.2 L 310.5 210.9" opacity="0.35"/>
<path d="M 221.5 212.4 C 219.9 226.7 324.4 227.3 324.8 223.7 C 325.2 220.1 223.0 198.0 221.5 212.4 Z" opacity="0.95"/>
<path d="M 221.5 212.4 L 309.8 222.1" opacity="0.35"/>
<path d="M 221.4 212.7 C 219.6 227.1 311.0 227.5 311.5 223.9 C 311.9 220.3 223.2 198.2 221.4 212.7 Z" opacity="0.95"/>
<path d="M 221.4 212.7 L 298.1 222.2" opacity="0.35"/>
<path d="M 220.9 215.3 C 218.8 223.8 328.7 244.6 329.2 242.5 C 329.8 240.3 223.1 206.7 220.9 215.3 Z" opacity="0.95"/>
<path d="M 220.9 215.3 L 313.7 238.6" opacity="0.35"/>
<path d="M 220.6 216.6 C 216.9 227.9 296.0 244.1 296.9 241.3 C 297.8 238.4 224.2 205.4 220.6 216.6 Z" opacity="0.95"/>
<path d="M 220.6 216.6 L 285.3 237.5" opacity="0.35"/>
<path d="M 219.9 218.4 C 216.2 227.2 282.6 247.3 283.6 245.1 C 284.5 242.9 223.6 209.6 219.9 218.4 Z" opacity="0.95"/>
<path d="M 219.9 218.4 L 273.5 240.9" opacity="0.35"/>
<path d="M 219.4 219.5 C 213.5 231.5 318.8 272.0 320.3 269.0 C 321.8 266.0 225.3 207.5 219.4 219.5 Z" opacity="0.95"/>
<path d="M 219.4 219.5 L 305.9 261.9" opacity="0.35"/>
<path d="M 218.7 220.8 C 214.1 228.6 309.8 276.4 310.9 274.4 C 312.1 272.4 223.2 213.0 218.7 220.8 Z" opacity="0.95"/>
<path d="M 218.7 220.8 L 297.6 266.7" opacity="0.35"/>
<path d="M 217.4 222.8 C 212.6 229.3 276.1 268.7 277.3 267.1 C 278.5 265.5 222.2 216.3 217.4 222.8 Z" opacity="0.95"/>
<path d="M 217.4 222.8 L 268.0 260.3" opacity="0.35"/>
<path d="M 216.1 224.4 C 209.7 231.6 272.8 278.7 274.4 276.9 C 276.0 275.2 222.4 217.3 216.1 224.4 Z" opacity="0.95"/>
<path d="M 216.1 224.4 L 265.4 268.9" opacity="0.35"/>
<path d="M 214.8 225.8 C 207.4 232.7 288.2 308.1 290.1 306.3 C 291.9 304.6 222.1 218.9 214.8 225.8 Z" opacity="0.95"/>
<path d="M 214.8 225.8 L 279.3 294.8" opacity="0.35"/>
<path d="M 213.5 226.9 C 203.5 234.8 269.9 302.5 272.4 300.5 C 274.9 298.5 223.4 218.9 213.5 226.9 Z" opacity="0.95"/>
<path d="M 213.5 226.9 L 263.7 289.6" opacity="0.35"/>
<path d="M 213.1 227.2 C 202.8 235.0 279.1 319.6 281.7 317.7 C 284.2 315.8 223.3 219.5 213.1 227.2 Z" opacity="0.95"/>
<path d="M 213.1 227.2 L 271.9 304.8" opacity="0.35"/>
<path d="M 210.7 228.8 C 201.9 233.8 263.5 326.8 265.7 325.5 C 267.9 324.3 219.5 223.8 210.7 228.8 Z" opacity="0.95"/>
<path d="M 210.7 228.8 L 257.8 311.7" opacity="0.35"/>
<path d="M 210.0 229.1 C 202.0 233.3 243.3 297.9 245.3 296.9 C 247.3 295.8 218.0 225.0 210.0 229.1 Z" opacity="0.95"/>
<path d="M 210.0 229.1 L 239.9 286.4" opacity="0.35"/>
<path d="M 208.9 229.7 C 197.7 234.7 240.1 306.5 242.9 305.3 C 245.7 304.0 220.0 224.7 208.9 229.7 Z" opacity="0.95"/>
<path d="M 208.9 229.7 L 237.7 293.8" opacity="0.35"/>
<path d="M 207.4 230.3 C 197.6 233.9 239.4 326.0 241.9 325.2 C 244.3 324.3 217.2 226.7 207.4 230.3 Z" opacity="0.95"/>
<path d="M 207.4 230.3 L 236.9 311.3" opacity="0.35"/>
<path d="M 205.3 230.9 C 194.3 233.7 229.1 336.0 231.8 335.3 C 234.6 334.6 216.4 228.1 205.3 230.9 Z" opacity="0.95"/>
<path d="M 205.3 230.9 L 228.0 320.3" opacity="0.35"/>
<path d="M 203.7 231.3 C 190.9 233.5 215.9 322.0 219.1 321.5 C 222.3 320.9 216.4 229.1 203.7 231.3 Z" opacity="0.95"/>
<path d="M 203.7 231.3 L 216.8 308.1" opacity="0.35"/>
<path d="M 202.4 231.5 C 194.2 232.4 212.9 346.2 214.9 346.0 C 217.0 345.8 210.5 230.6 202.4 231.5 Z" opacity="0.95"/>
<path d="M 202.4 231.5 L 213.2 329.7" opacity="0.35"/>
<path d="M 199.6 231.6 C 191.4 231.5 195.7 340.5 197.7 340.5 C 199.8 340.6 207.8 231.7 199.6 231.6 Z" opacity="0.95"/>
<path d="M 199.6 231.6 L 198.0 324.9" opacity="0.35"/>
<path d="M 197.9 231.5 C 185.9 230.3 186.4 316.8 189.4 317.1 C 192.4 317.4 209.9 232.7 197.9 231.5 Z" opacity="0.95"/>
<path d="M 197.9 231.5 L 190.7 304.2" opacity="0.35"/>
<path d="M 197.4 231.4 C 188.1 230.3 186.4 301.3 188.7 301.5 C 191.0 301.8 206.6 232.6 197.4 231.4 Z" opacity="0.95"/>
<path d="M 197.4 231.4 L 190.1 290.6" opacity="0.35"/>
<path d="M 194.3 230.8 C 181.5 227.3 170.5 305.0 173.7 305.9 C 176.9 306.8 207.1 234.3 194.3 230.8 Z" opacity="0.95"/>
<path d="M 194.3 230.8 L 176.9 294.4" opacity="0.35"/>
<path d="M 192.7 230.3 C 182.9 226.8 151.9 336.4 154.4 337.3 C 156.8 338.2 202.5 233.9 192.7 230.3 Z" opacity="0.95"/>
<path d="M 192.7 230.3 L 159.9 322.0" opacity="0.35"/>
<path d="M 191.9 230.0 C 179.5 225.0 153.9 315.6 157.0 316.9 C 160.1 318.1 204.4 235.1 191.9 230.0 Z" opacity="0.95"/>
<path d="M 191.9 230.0 L 162.2 304.0" opacity="0.35"/>
<path d="M 190.7 229.5 C 178.5 223.7 142.9 322.3 145.9 323.7 C 149.0 325.2 203.0 235.3 190.7 229.5 Z" opacity="0.95"/>
<path d="M 190.7 229.5 L 152.4 310.1" opacity="0.35"/>
<path d="M 188.3 228.1 C 176.0 220.2 147.0 285.0 150.1 287.0 C 153.2 289.0 200.5 236.1 188.3 228.1 Z" opacity="0.95"/>
<path d="M 188.3 228.1 L 156.1 277.8" opacity="0.35"/>
<path d="M 187.8 227.8 C 177.7 220.9 137.4 296.1 140.0 297.8 C 142.5 299.5 197.9 234.8 187.8 227.8 Z" opacity="0.95"/>
<path d="M 187.8 227.8 L 147.2 287.3" opacity="0.35"/>
<path d="M 185.5 226.0 C 174.8 216.3 125.9 286.4 128.6 288.8 C 131.3 291.2 196.2 235.7 185.5 226.0 Z" opacity="0.95"/>
<path d="M 185.5 226.0 L 137.2 279.3" opacity="0.35"/>
<path d="M 184.7 225.2 C 177.5 218.0 123.7 282.2 125.5 284.0 C 127.3 285.8 191.9 232.5 184.7 225.2 Z" opacity="0.95"/>
<path d="M 184.7 225.2 L 134.5 275.1" opacity="0.35"/>
<path d="M 183.9 224.4 C 177.8 217.6 128.6 270.8 130.1 272.5 C 131.6 274.2 190.0 231.2 183.9 224.4 Z" opacity="0.95"/>
<path d="M 183.9 224.4 L 138.5 265.0" opacity="0.35"/>
<path d="M 182.4 222.5 C 177.1 215.0 86.1 287.7 87.4 289.5 C 88.7 291.4 187.7 230.0 182.4 222.5 Z" opacity="0.95"/>
<path d="M 182.4 222.5 L 100.9 280.0" opacity="0.35"/>
<path d="M 181.9 221.9 C 175.5 212.0 83.6 283.0 85.2 285.4 C 86.8 287.9 188.4 231.7 181.9 221.9 Z" opacity="0.95"/>
<path d="M 181.9 221.9 L 99.0 276.4" opacity="0.35"/>
<path d="M 180.8 219.9 C 175.2 209.1 108.6 253.9 110.0 256.6 C 111.4 259.3 186.4 230.7 180.8 219.9 Z" opacity="0.95"/>
<path d="M 180.8 219.9 L 120.8 251.0" opacity="0.35"/>
<path d="M 179.9 217.8 C 175.9 207.6 94.7 247.9 95.7 250.4 C 96.7 253.0 183.8 228.0 179.9 217.8 Z" opacity="0.95"/>
<path d="M 179.9 217.8 L 108.2 245.6" opacity="0.35"/>
<path d="M 179.7 217.3 C 176.9 209.5 73.2 253.4 73.9 255.3 C 74.6 257.3 182.5 225.1 179.7 217.3 Z" opacity="0.95"/>
<path d="M 179.7 217.3 L 89.1 249.9" opacity="0.35"/>
<path d="M 179.0 215.1 C 176.9 206.3 72.8 238.3 73.4 240.5 C 73.9 242.6 181.1 223.8 179.0 215.1 Z" opacity="0.95"/>
<path d="M 179.0 215.1 L 88.6 236.8" opacity="0.35"/>
<path d="M 178.6 213.0 C 176.9 200.7 65.3 226.0 65.8 229.0 C 66.2 232.1 180.4 225.3 178.6 213.0 Z" opacity="0.95"/>
<path d="M 178.6 213.0 L 81.9 226.8" opacity="0.35"/>
<path d="M 178.4 211.3 C 177.8 200.2 104.9 212.8 105.0 215.6 C 105.2 218.3 179.1 222.3 178.4 211.3 Z" opacity="0.95"/>
<path d="M 178.4 211.3 L 116.4 214.9" opacity="0.35"/>
<path d="M 178.4 210.5 C 178.2 200.4 69.4 210.7 69.5 213.2 C 69.6 215.7 178.7 220.6 178.4 210.5 Z" opacity="0.95"/>
<path d="M 178.4 210.5 L 85.2 212.8" opacity="0.35"/>
<path d="M 178.5 208.4 C 179.5 194.5 62.7 196.1 62.4 199.6 C 62.2 203.1 177.4 222.3 178.5 208.4 Z" opacity="0.95"/>
<path d="M 178.5 208.4 L 78.9 200.9" opacity="0.35"/>
<path d="M 178.8 205.9 C 181.0 194.7 90.8 186.0 90.2 188.9 C 89.7 191.7 176.6 217.1 178.8 205.9 Z" opacity="0.95"/>
<path d="M 178.8 205.9 L 103.4 191.4" opacity="0.35"/>
<path d="M 179.1 204.6 C 181.6 194.9 91.2 179.4 90.6 181.9 C 89.9 184.3 176.6 214.4 179.1 204.6 Z" opacity="0.95"/>
<path d="M 179.1 204.6 L 103.7 185.2" opacity="0.35"/>
<path d="M 179.4 203.5 C 182.6 193.3 108.3 178.1 107.5 180.6 C 106.7 183.2 176.2 213.6 179.4 203.5 Z" opacity="0.95"/>
<path d="M 179.4 203.5 L 118.6 184.2" opacity="0.35"/>
<path d="M 180.3 201.1 C 185.5 189.8 77.4 150.9 76.1 153.7 C 74.9 156.5 175.2 212.3 180.3 201.1 Z" opacity="0.95"/>
<path d="M 180.3 201.1 L 91.0 160.4" opacity="0.35"/>
<path d="M 180.8 200.2 C 184.7 192.5 106.3 159.8 105.3 161.8 C 104.3 163.7 176.8 207.9 180.8 200.2 Z" opacity="0.95"/>
<path d="M 180.8 200.2 L 116.7 167.6" opacity="0.35"/>
<path d="M 181.4 199.0 C 188.6 186.9 92.0 142.1 90.2 145.1 C 88.4 148.1 174.3 211.1 181.4 199.0 Z" opacity="0.95"/>
<path d="M 181.4 199.0 L 103.4 152.9" opacity="0.35"/>
<path d="M 182.4 197.5 C 190.2 186.5 97.9 133.2 95.9 135.9 C 94.0 138.7 174.6 208.4 182.4 197.5 Z" opacity="0.95"/>
<path d="M 182.4 197.5 L 108.4 144.8" opacity="0.35"/>
<path d="M 183.8 195.8 C 192.6 185.7 110.6 127.1 108.4 129.6 C 106.2 132.1 175.0 205.8 183.8 195.8 Z" opacity="0.95"/>
<path d="M 183.8 195.8 L 119.4 139.2" opacity="0.35"/>
<path d="M 184.6 194.9 C 191.6 187.7 113.4 121.5 111.6 123.3 C 109.9 125.1 177.6 202.0 184.6 194.9 Z" opacity="0.95"/>
<path d="M 184.6 194.9 L 122.2 133.7" opacity="0.35"/>
<path d="M 186.0 193.6 C 195.7 185.2 119.9 111.5 117.5 113.6 C 115.0 115.6 176.2 201.9 186.0 193.6 Z" opacity="0.95"/>
<path d="M 186.0 193.6 L 127.4 125.1" opacity="0.35"/>
<path d="M 187.1 192.7 C 197.1 185.2 121.4 99.7 118.9 101.6 C 116.3 103.5 177.0 200.2 187.1 192.7 Z" opacity="0.95"/>
<path d="M 187.1 192.7 L 128.6 114.6" opacity="0.35"/>
<path d="M 188.8 191.5 C 199.0 185.4 155.7 131.0 153.1 132.5 C 150.6 134.1 178.7 197.7 188.8 191.5 Z" opacity="0.95"/>
<path d="M 188.8 191.5 L 158.7 141.8" opacity="0.35"/>
<path d="M 189.9 190.9 C 199.8 185.6 145.1 100.7 142.6 102.1 C 140.1 103.4 179.9 196.2 189.9 190.9 Z" opacity="0.95"/>
<path d="M 189.9 190.9 L 149.5 115.0" opacity="0.35"/>
<path d="M 192.2 189.9 C 204.8 184.9 159.3 95.9 156.2 97.1 C 153.0 98.4 179.5 194.8 192.2 189.9 Z" opacity="0.95"/>
<path d="M 192.2 189.9 L 161.4 110.7" opacity="0.35"/>
<path d="M 193.1 189.5 C 205.6 185.3 164.5 94.4 161.4 95.4 C 158.3 96.5 180.6 193.7 193.1 189.5 Z" opacity="0.95"/>
<path d="M 193.1 189.5 L 166.0 109.2" opacity="0.35"/>
<path d="M 195.4 188.9 C 209.0 186.0 180.8 104.9 177.5 105.6 C 174.1 106.3 181.9 191.8 195.4 188.9 Z" opacity="0.95"/>
<path d="M 195.4 188.9 L 180.2 118.1" opacity="0.35"/>
<path d="M 197.2 188.6 C 211.9 186.6 187.6 87.5 183.9 88.0 C 180.2 88.5 182.5 190.5 197.2 188.6 Z" opacity="0.95"/>
<path d="M 197.2 188.6 L 185.8 102.7" opacity="0.35"/>
<path d="M 199.0 188.4 C 210.7 187.9 197.6 95.1 194.6 95.3 C 191.7 95.4 187.3 189.0 199.0 188.4 Z" opacity="0.95"/>
<path d="M 199.0 188.4 L 195.3 109.0" opacity="0.35"/>
<path d="M 199.5 188.4 C 214.0 188.1 200.6 79.8 197.0 79.9 C 193.3 80.0 185.0 188.7 199.5 188.4 Z" opacity="0.95"/>
<path d="M 199.5 188.4 L 197.3 95.5" opacity="0.35"/>
<path d="M 201.7 188.5 C 214.7 189.5 212.7 87.4 209.5 87.2 C 206.2 86.9 188.7 187.5 201.7 188.5 Z" opacity="0.95"/>
<path d="M 201.7 188.5 L 208.3 101.9" opacity="0.35"/>
<path d="M 203.7 188.7 C 217.0 191.0 220.2 113.8 216.9 113.2 C 213.6 112.6 190.5 186.4 203.7 188.7 Z" opacity="0.95"/>
<path d="M 203.7 188.7 L 214.9 124.8" opacity="0.35"/>
<path d="M 205.2 189.0 C 215.8 191.6 231.8 92.2 229.1 91.6 C 226.5 90.9 194.5 186.4 205.2 189.0 Z" opacity="0.95"/>
<path d="M 205.2 189.0 L 225.6 105.8" opacity="0.35"/>
<path d="M 206.9 189.5 C 218.7 193.5 243.3 90.4 240.3 89.4 C 237.4 88.4 195.0 185.6 206.9 189.5 Z" opacity="0.95"/>
<path d="M 206.9 189.5 L 235.5 103.9" opacity="0.35"/>
<path d="M 208.6 190.2 C 217.0 193.8 238.3 127.1 236.2 126.2 C 234.1 125.3 200.2 186.5 208.6 190.2 Z" opacity="0.95"/>
<path d="M 208.6 190.2 L 231.9 136.2" opacity="0.35"/>
<path d="M 209.7 190.7 C 218.3 195.0 256.7 102.9 254.6 101.8 C 252.4 100.7 201.2 186.4 209.7 190.7 Z" opacity="0.95"/>
<path d="M 209.7 190.7 L 248.0 114.8" opacity="0.35"/>
<path d="M 211.5 191.7 C 218.6 196.2 265.9 109.4 264.2 108.3 C 262.4 107.2 204.5 187.3 211.5 191.7 Z" opacity="0.95"/>
<path d="M 211.5 191.7 L 256.5 120.5" opacity="0.35"/>
<path d="M 212.7 192.5 C 219.5 197.4 260.8 129.5 259.1 128.3 C 257.4 127.0 205.8 187.6 212.7 192.5 Z" opacity="0.95"/>
<path d="M 212.7 192.5 L 252.0 138.1" opacity="0.35"/>
<path d="M 213.6 193.2 C 220.8 199.1 268.1 129.7 266.3 128.3 C 264.5 126.8 206.4 187.4 213.6 193.2 Z" opacity="0.95"/>
<path d="M 213.6 193.2 L 258.3 138.1" opacity="0.35"/>
<path d="M 214.9 194.4 C 223.1 202.2 265.5 145.7 263.4 143.8 C 261.4 141.8 206.8 186.6 214.9 194.4 Z" opacity="0.95"/>
<path d="M 214.9 194.4 L 255.8 151.7" opacity="0.35"/>
<path d="M 216.3 195.8 C 224.3 205.0 292.1 134.0 290.1 131.7 C 288.1 129.4 208.3 186.7 216.3 195.8 Z" opacity="0.95"/>
<path d="M 216.3 195.8 L 279.3 141.1" opacity="0.35"/>
<path d="M 217.2 197.0 C 222.1 203.4 307.6 131.3 306.4 129.7 C 305.2 128.0 212.4 190.5 217.2 197.0 Z" opacity="0.95"/>
<path d="M 217.2 197.0 L 293.7 139.3" opacity="0.35"/>
<path d="M 218.3 198.6 C 224.1 207.8 289.2 157.7 287.8 155.4 C 286.3 153.1 212.6 189.3 218.3 198.6 Z" opacity="0.95"/>
<path d="M 218.3 198.6 L 277.2 162.0" opacity="0.35"/>
<path d="M 219.0 199.7 C 224.1 209.0 315.4 150.3 314.1 147.9 C 312.8 145.6 213.9 190.3 219.0 199.7 Z" opacity="0.95"/>
<path d="M 219.0 199.7 L 300.4 155.4" opacity="0.35"/>
<path d="M 219.7 201.1 C 223.3 209.0 309.7 162.7 308.8 160.7 C 307.9 158.8 216.1 193.1 219.7 201.1 Z" opacity="0.95"/>
<path d="M 219.7 201.1 L 295.8 166.6" opacity="0.35"/>
<path d="M 220.6 203.4 C 224.3 214.9 302.1 180.3 301.2 177.5 C 300.3 174.6 216.9 191.9 220.6 203.4 Z" opacity="0.95"/>
<path d="M 220.6 203.4 L 289.0 181.4" opacity="0.35"/>
<path d="M 221.2 205.6 C 223.4 216.4 327.2 186.5 326.6 183.9 C 326.1 181.2 218.9 194.9 221.2 205.6 Z" opacity="0.95"/>
<path d="M 221.2 205.6 L 311.4 187.0" opacity="0.35"/>
<path d="M 221.4 207.1 C 222.8 217.6 320.1 196.3 319.7 193.7 C 319.4 191.1 220.0 196.6 221.4 207.1 Z" opacity="0.95"/>
<path d="M 221.4 207.1 L 305.4 195.7" opacity="0.35"/>
<path d="M 221.5 207.8 C 222.7 219.7 318.3 200.7 318.0 197.7 C 317.7 194.8 220.2 195.9 221.5 207.8 Z" opacity="0.95"/>
<path d="M 221.5 207.8 L 303.8 199.2" opacity="0.35"/>
<circle cx="200" cy="210" r="14.4" opacity="0.6"/>
<circle cx="212.5" cy="206.5" r="1.4" opacity="0.65"/>
<circle cx="192.8" cy="204.1" r="1.4" opacity="0.65"/>
<circle cx="205.7" cy="205.5" r="1.4" opacity="0.65"/>
<circle cx="208.3" cy="216.6" r="1.4" opacity="0.65"/>
<circle cx="194.0" cy="204.7" r="1.4" opacity="0.65"/>
<circle cx="191.4" cy="200.9" r="1.4" opacity="0.65"/>
<circle cx="193.0" cy="216.9" r="1.4" opacity="0.65"/>
<circle cx="201.3" cy="218.9" r="1.4" opacity="0.65"/>
<circle cx="209.3" cy="208.4" r="1.4" opacity="0.65"/>
<circle cx="212.3" cy="206.9" r="1.4" opacity="0.65"/>
</svg>