<svg xmlns="http://www.w3.org/2000/svg" viewBox="0 0 400 400" fill="none" stroke="currentColor" stroke-width="1.15" stroke-linecap="round" stroke-linejoin="round">
<path d="M 200.0 210.0 C 180.2 177.0 189.0 133.0 200.0 122.0 C 211.0 133.0 219.8 177.0 200.0 210.0 Z" />
<path d="M 200.0 210.0 C 150.5 199.0 123.0 182.5 109.8 166.0 C 128.5 149.5 161.5 171.5 200.0 210.0 Z" />
<path d="M 200.0 210.0 C 249.5 199.0 277.0 182.5 290.2 166.0 C 271.5 149.5 238.5 171.5 200.0 210.0 Z" />
<path d="M 200.0 210.0 C 172.5 221.0 156.0 248.5 167.0 270.5 C 189.0 259.5 194.5 232.0 200.0 210.0 Z" />
<path d="M 200.0 210.0 C 227.5 221.0 244.0 248.5 233.0 270.5 C 211.0 259.5 205.5 232.0 200.0 210.0 Z" />
<path d="M 200.0 223.2 C 184.6 229.8 175.8 243.0 200.0 251.8 C 224.2 243.0 215.4 229.8 200.0 223.2 Z" opacity="0.95"/>
<path d="M 194.5 203.4 Q 200.0 221.0 205.5 203.4" opacity="0.7"/>
<path d="M 200.0 203.4 L 189.7 171.5" opacity="0.35"/>
<path d="M 200.0 203.4 L 193.7 171.5" opacity="0.35"/>
<path d="M 200.0 203.4 L 200.0 171.5" opacity="0.35"/>
<path d="M 200.0 203.4 L 206.3 171.5" opacity="0.35"/>
<path d="M 200.0 203.4 L 210.3 171.5" opacity="0.35"/>
</svg>