<svg xmlns="http://www.w3.org/2000/svg" viewBox="0 0 800 400" fill="none" stroke="currentColor" stroke-width="1.15" stroke-linecap="round" stroke-linejoin="round">
<path d="M 120 310 C 210 250 270 240 340 240 C 430 240 500 290 620 190 C 690 130 720 100 760 90" opacity="0.9"/>
<path d="M 140 300 C 120 270 110 240 120 210 C 150 232 165 260 170 292" opacity="0.8"/>
<path d="M 160 305 C 170 270 190 245 220 220 C 220 250 205 278 180 303" opacity="0.8"/>
<path d="M 330.0 230.0 C 304.8 200.9 305.8 156.1 314.7 143.3 C 327.5 152.3 343.8 194.1 330.0 230.0 Z" />
<path d="M 330.0 230.0 C 279.3 227.8 249.4 216.3 233.5 202.3 C 249.1 182.8 285.4 198.8 330.0 230.0 Z" />
<path d="M 330.0 230.0 C 376.8 210.6 401.1 189.5 411.2 171.0 C 389.9 158.0 361.2 185.4 330.0 230.0 Z" />
<path d="M 330.0 230.0 C 304.8 245.6 293.4 275.6 308.0 295.3 C 327.8 280.7 328.4 252.6 330.0 230.0 Z" />
<path d="M 330.0 230.0 C 359.0 236.1 380.0 260.3 373.0 283.9 C 349.4 276.8 339.2 250.7 330.0 230.0 Z" />
<path d="M 332.3 243.0 C 318.3 252.2 311.9 266.7 337.3 271.2 C 359.6 258.3 348.6 246.8 332.3 243.0 Z" opacity="0.95"/>
<path d="M 323.4 224.5 Q 331.9 240.8 334.3 222.5" opacity="0.7"/>
<path d="M 328.9 223.5 L 313.1 193.9" opacity="0.35"/>
<path d="M 328.9 223.5 L 317.1 193.2" opacity="0.35"/>
<path d="M 328.9 223.5 L 323.3 192.1" opacity="0.35"/>
<path d="M 328.9 223.5 L 329.5 191.0" opacity="0.35"/>
<path d="M 328.9 223.5 L 333.5 190.3" opacity="0.35"/>
<path d="M 560.0 185.0 C 550.3 156.9 564.1 125.0 574.1 118.5 C 580.7 128.6 580.3 163.2 560.0 185.0 Z" />
<path d="M 560.0 185.0 C 524.4 168.7 506.2 151.8 498.9 137.3 C 515.7 127.8 537.1 149.7 560.0 185.0 Z" />
<path d="M 560.0 185.0 C 599.2 184.6 622.6 176.6 635.2 166.2 C 623.8 150.8 595.3 162.1 560.0 185.0 Z" />
<path d="M 560.0 185.0 C 537.4 188.9 520.6 207.0 525.3 225.4 C 543.7 220.6 552.3 200.7 560.0 185.0 Z" />
<path d="M 560.0 185.0 C 579.0 197.7 587.1 221.2 575.2 236.0 C 560.4 224.2 560.6 202.5 560.0 185.0 Z" />
<path d="M 557.9 195.0 C 545.2 197.5 536.4 206.1 553.3 216.6 C 573.0 213.8 568.5 202.4 557.9 195.0 Z" opacity="0.95"/>
<path d="M 556.9 179.1 Q 558.2 193.3 565.2 180.9" opacity="0.7"/>
<path d="M 561.1 180.0 L 558.4 154.2" opacity="0.35"/>
<path d="M 561.1 180.0 L 561.4 154.9" opacity="0.35"/>
<path d="M 561.1 180.0 L 566.2 155.9" opacity="0.35"/>
<path d="M 561.1 180.0 L 571.0 156.9" opacity="0.35"/>
<path d="M 561.1 180.0 L 574.0 157.6" opacity="0.35"/>
<path d="M 650 150 C 662 140 675 132 690 128" opacity="0.8"/>
<circle cx="700" cy="124" r="8" opacity="0.7"/>
<circle cx="720" cy="110" r="6" opacity="0.5"/>
</svg>