<svg xmlns="http://www.w3.org/2000/svg" viewBox="0 0 800 400" fill="none" stroke="currentColor" stroke-width="1.25" stroke-linecap="round" stroke-linejoin="round">
<path d="M 80 260 C 160 210 250 210 330 240 C 420 274 520 270 620 232 C 670 212 710 208 760 220" opacity="0.9"/>
<path d="M 200 238 C 160 210 140 190 130 160 C 165 172 190 190 220 220" opacity="0.8"/>
<path d="M 410 255 C 455 236 480 220 500 190 C 472 192 440 212 408 240" opacity="0.8"/>
<path d="M 560 246 C 610 238 650 222 690 190 C 648 198 600 214 558 230" opacity="0.8"/>
<path d="M 150 185 C 175 195 195 210 215 228" opacity="0.55"/>
<path d="M 455 223 C 445 235 430 248 412 258" opacity="0.55"/>
<path d="M 620 214 C 602 224 582 236 565 250" opacity="0.55"/>
<path d="M 300.0 170.0 C 274.0 168.7 232.2 114.0 265.4 75.1 C 315.9 83.6 319.1 152.3 300.0 170.0 Z" />
<path d="M 294.7 166.6 C 295.5 160.9 286.1 142.0 284.4 139.4" opacity="0.55" />
<path d="M 298.3 165.3 C 296.5 160.5 286.4 132.5 285.3 129.7" opacity="0.55" />
<path d="M 301.9 163.9 C 297.6 160.1 286.6 123.0 286.2 119.9" opacity="0.55" />
<path d="M 300.0 170.0 C 281.8 157.8 274.9 98.4 315.3 83.1 C 348.1 111.3 321.3 164.8 300.0 170.0 Z" />
<path d="M 297.6 165.1 C 300.6 161.1 301.9 142.8 301.7 140.1" opacity="0.55" />
<path d="M 300.8 165.7 C 301.5 161.3 306.1 135.7 306.5 133.1" opacity="0.55" />
<path d="M 303.9 166.2 C 302.5 161.5 310.2 128.6 311.3 126.1" opacity="0.55" />
<path d="M 300.0 170.0 C 288.7 147.6 315.1 85.5 363.8 93.9 C 380.6 140.4 324.0 177.2 300.0 170.0 Z" />
<path d="M 300.4 163.8 C 305.5 161.7 317.1 144.5 318.5 141.7" opacity="0.55" />
<path d="M 303.2 166.2 C 306.4 162.4 325.2 140.0 327.1 137.7" opacity="0.55" />
<path d="M 306.0 168.6 C 307.2 163.1 333.3 135.4 335.8 133.6" opacity="0.55" />
<path d="M 300.0 170.0 C 301.9 146.9 355.0 108.4 391.1 136.8 C 381.7 181.8 316.3 186.5 300.0 170.0 Z" />
<path d="M 303.4 165.2 C 308.8 165.7 327.0 157.0 329.5 155.3" opacity="0.55" />
<path d="M 304.6 168.3 C 309.1 166.7 336.0 156.9 338.7 155.9" opacity="0.55" />
<path d="M 305.7 171.5 C 309.5 167.6 345.0 156.8 347.9 156.5" opacity="0.55" />
<path d="M 300.0 170.0 C 313.4 149.6 378.2 141.5 394.6 186.7 C 363.7 223.5 305.6 193.8 300.0 170.0 Z" />
<path d="M 305.3 167.3 C 309.6 170.6 329.6 172.0 332.6 171.8" opacity="0.55" />
<path d="M 304.7 170.8 C 309.5 171.7 337.4 176.6 340.2 177.1" opacity="0.55" />
<path d="M 304.1 174.3 C 309.3 172.7 345.1 181.2 347.8 182.4" opacity="0.55" />
<path d="M 300.0 170.0 C 320.4 160.5 379.3 187.2 373.3 231.5 C 330.7 245.1 294.2 191.8 300.0 170.0 Z" />
<path d="M 305.7 170.6 C 308.0 175.4 324.4 186.7 327.0 188.0" opacity="0.55" />
<path d="M 303.7 173.1 C 307.3 176.2 329.0 194.3 331.2 196.1" opacity="0.55" />
<path d="M 301.6 175.6 C 306.7 176.9 333.5 201.9 335.3 204.3" opacity="0.55" />
<path d="M 300.0 170.0 C 323.4 171.5 361.4 222.3 332.0 257.9 C 286.6 249.5 283.0 186.1 300.0 170.0 Z" />
<path d="M 304.8 173.2 C 304.2 178.4 312.7 196.0 314.3 198.4" opacity="0.55" />
<path d="M 301.6 174.4 C 303.2 178.8 312.6 204.7 313.6 207.4" opacity="0.55" />
<path d="M 298.4 175.6 C 302.2 179.1 312.5 213.5 312.9 216.3" opacity="0.55" />
<path d="M 300.0 170.0 C 322.2 183.8 331.5 250.0 283.0 266.2 C 243.0 234.4 274.4 175.4 300.0 170.0 Z" />
<path d="M 302.9 175.5 C 299.4 179.8 298.2 200.2 298.5 203.2" opacity="0.55" />
<path d="M 299.2 174.8 C 298.3 179.6 293.3 208.0 292.8 210.9" opacity="0.55" />
<path d="M 295.4 174.1 C 297.2 179.4 288.4 215.8 287.1 218.6" opacity="0.55" />
<path d="M 300.0 170.0 C 310.5 192.0 282.8 254.4 235.1 247.3 C 219.9 201.6 276.5 163.5 300.0 170.0 Z" />
<path d="M 299.5 176.1 C 294.3 178.4 282.5 195.8 281.1 198.6" opacity="0.55" />
<path d="M 296.8 173.9 C 293.5 177.7 274.4 200.5 272.4 202.9" opacity="0.55" />
<path d="M 294.1 171.6 C 292.7 177.1 266.3 205.3 263.8 207.1" opacity="0.55" />
<path d="M 300.0 170.0 C 298.3 192.8 247.2 230.4 211.9 202.1 C 220.7 157.7 284.1 153.6 300.0 170.0 Z" />
<path d="M 296.7 174.7 C 291.5 174.1 273.9 182.7 271.5 184.3" opacity="0.55" />
<path d="M 295.6 171.6 C 291.2 173.2 265.2 182.7 262.6 183.6" opacity="0.55" />
<path d="M 294.5 168.5 C 290.9 172.3 256.5 182.7 253.6 183.0" opacity="0.55" />
<path d="M 300.0 170.0 C 287.9 187.9 228.7 194.6 213.4 154.7 C 241.4 122.5 294.8 149.0 300.0 170.0 Z" />
<path d="M 295.1 172.3 C 291.2 169.4 272.9 168.1 270.2 168.3" opacity="0.55" />
<path d="M 295.7 169.2 C 291.3 168.5 265.8 164.0 263.2 163.5" opacity="0.55" />
<path d="M 296.2 166.1 C 291.5 167.5 258.7 159.8 256.2 158.8" opacity="0.55" />
<path d="M 300.0 170.0 C 279.2 180.1 220.8 154.7 228.0 109.6 C 271.1 94.7 306.4 147.8 300.0 170.0 Z" />
<path d="M 294.2 169.6 C 292.1 164.7 275.9 153.7 273.3 152.4" opacity="0.55" />
<path d="M 296.4 167.0 C 292.8 164.0 271.5 146.1 269.4 144.3" opacity="0.55" />
<path d="M 298.6 164.4 C 293.4 163.2 267.2 138.5 265.5 136.2" opacity="0.55" />
<path d="M 300.0 170.0 C 274.5 169.4 234.8 119.7 268.3 82.8 C 317.6 89.5 319.1 153.2 300.0 170.0 Z" />
<path d="M 294.9 166.9 C 295.8 161.7 287.0 144.3 285.4 142.0" opacity="0.55" />
<path d="M 298.4 165.6 C 296.8 161.3 287.5 135.5 286.5 132.9" opacity="0.55" />
<path d="M 302.0 164.3 C 297.9 160.9 287.9 126.8 287.6 123.9" opacity="0.55" />
<path d="M 300.0 170.0 C 284.1 163.1 269.4 118.0 300.0 100.7 C 330.6 118.0 315.9 163.1 300.0 170.0 Z" />
<path d="M 298.3 166.5 C 299.5 163.1 298.5 146.7 298.1 144.6" opacity="0.55" />
<path d="M 301.7 166.5 C 300.5 163.1 301.5 138.6 301.9 136.5" opacity="0.55" />
<path d="M 300.0 170.0 C 291.1 157.2 301.5 113.0 333.4 112.1 C 348.6 140.2 315.6 171.3 300.0 170.0 Z" />
<path d="M 300.4 166.4 C 303.0 164.0 310.1 149.8 310.8 148.0" opacity="0.55" />
<path d="M 303.0 167.9 C 303.7 164.4 316.3 144.4 317.6 142.8" opacity="0.55" />
<path d="M 300.0 170.0 C 298.6 154.1 330.0 120.5 358.6 136.2 C 357.9 168.8 313.1 179.2 300.0 170.0 Z" />
<path d="M 302.2 167.0 C 305.6 166.2 319.0 157.4 320.6 156.1" opacity="0.55" />
<path d="M 303.7 169.6 C 306.1 167.0 327.2 155.9 329.1 155.1" opacity="0.55" />
<path d="M 300.0 170.0 C 306.9 152.7 351.9 136.6 369.2 170.0 C 351.9 203.4 306.9 187.3 300.0 170.0 Z" />
<path d="M 303.5 168.2 C 306.9 169.4 323.3 168.3 325.4 168.0" opacity="0.55" />
<path d="M 303.5 171.8 C 306.9 170.6 331.4 171.7 333.5 172.0" opacity="0.55" />
<path d="M 300.0 170.0 C 313.4 160.9 360.0 172.1 361.2 205.3 C 331.8 220.9 298.8 186.2 300.0 170.0 Z" />
<path d="M 303.8 170.4 C 306.3 173.1 321.3 180.7 323.3 181.5" opacity="0.55" />
<path d="M 302.3 173.1 C 305.9 173.9 327.0 187.2 328.7 188.5" opacity="0.55" />
<path d="M 300.0 170.0 C 318.0 168.0 355.0 201.1 336.3 232.8 C 299.4 233.2 289.2 184.6 300.0 170.0 Z" />
<path d="M 303.3 172.3 C 304.1 176.0 313.6 190.3 315.0 192.1" opacity="0.55" />
<path d="M 300.3 174.0 C 303.2 176.5 315.1 199.3 315.8 201.3" opacity="0.55" />
<path d="M 300.0 170.0 C 317.0 177.1 332.8 223.4 300.0 241.1 C 267.2 223.4 283.0 177.1 300.0 170.0 Z" />
<path d="M 301.8 173.6 C 300.5 177.1 301.6 194.0 302.0 196.1" opacity="0.55" />
<path d="M 298.2 173.6 C 299.5 177.1 298.4 202.3 298.0 204.4" opacity="0.55" />
<path d="M 300.0 170.0 C 310.8 184.5 301.0 232.4 264.3 231.8 C 245.5 200.3 282.0 167.9 300.0 170.0 Z" />
<path d="M 299.7 174.0 C 296.9 176.4 289.4 191.6 288.6 193.6" opacity="0.55" />
<path d="M 296.7 172.2 C 296.0 175.9 282.4 197.2 281.1 198.9" opacity="0.55" />
<path d="M 300.0 170.0 C 302.8 188.3 272.6 224.3 241.2 203.9 C 239.3 166.6 285.5 158.4 300.0 170.0 Z" />
<path d="M 298.0 173.3 C 294.4 173.9 281.0 182.8 279.5 184.2" opacity="0.55" />
<path d="M 296.1 170.1 C 293.8 172.9 272.5 184.0 270.6 184.7" opacity="0.55" />
<path d="M 300.0 170.0 C 292.7 184.6 245.2 198.1 226.9 170.0 C 245.2 141.9 292.7 155.4 300.0 170.0 Z" />
<path d="M 296.3 171.5 C 292.7 170.5 275.4 171.4 273.2 171.7" opacity="0.55" />
<path d="M 296.3 168.5 C 292.7 169.5 266.9 168.6 264.7 168.3" opacity="0.55" />
<path d="M 300.0 170.0 C 285.6 180.6 237.9 170.6 238.2 134.3 C 269.5 115.9 302.0 152.2 300.0 170.0 Z" />
<path d="M 296.0 169.7 C 293.6 166.9 278.4 159.3 276.4 158.6" opacity="0.55" />
<path d="M 297.8 166.7 C 294.1 166.0 272.8 152.5 271.1 151.1" opacity="0.55" />
<path d="M 300.0 170.0 C 282.9 171.9 247.9 140.5 265.6 110.4 C 300.5 110.1 310.2 156.2 300.0 170.0 Z" />
<path d="M 296.8 167.9 C 296.1 164.3 287.1 150.7 285.8 149.1" opacity="0.55" />
<path d="M 299.7 166.2 C 297.0 163.8 285.7 142.2 285.0 140.3" opacity="0.55" />
<path d="M 300.0 170.0 C 289.7 162.1 286.7 128.1 312.8 122.3 C 332.4 140.4 312.8 168.3 300.0 170.0 Z" />
<path d="M 300.0 170.0 C 297.3 157.6 317.0 129.7 340.5 141.7 C 343.7 167.8 310.8 176.8 300.0 170.0 Z" />
<path d="M 300.0 170.0 C 305.9 158.6 338.4 149.8 348.5 174.2 C 334.3 196.6 303.8 182.2 300.0 170.0 Z" />
<path d="M 300.0 170.0 C 311.4 165.9 342.6 182.0 336.4 206.4 C 312.0 212.6 295.9 181.4 300.0 170.0 Z" />
<path d="M 300.0 170.0 C 312.3 173.9 326.8 205.1 304.3 219.6 C 279.7 209.2 288.6 176.0 300.0 170.0 Z" />
<path d="M 300.0 170.0 C 306.1 180.4 296.1 213.5 271.0 211.4 C 260.4 188.6 288.1 167.8 300.0 170.0 Z" />
<path d="M 300.0 170.0 C 298.1 181.5 270.7 199.6 253.7 182.4 C 259.8 159.0 292.6 161.0 300.0 170.0 Z" />
<path d="M 300.0 170.0 C 291.1 177.2 257.1 172.5 254.3 148.7 C 274.3 135.6 299.8 158.6 300.0 170.0 Z" />
<path d="M 300.0 170.0 C 288.3 169.8 264.8 143.8 278.2 123.3 C 302.5 126.2 307.3 160.9 300.0 170.0 Z" />
<path d="M 308.0 170.7 L 317.9 171.5" opacity="0.65" />
<path d="M 307.6 172.4 L 317.1 175.5" opacity="0.65" />
<path d="M 305.6 175.7 L 312.6 182.8" opacity="0.65" />
<path d="M 303.7 177.1 L 308.3 186.0" opacity="0.65" />
<path d="M 301.4 177.9 L 303.1 187.7" opacity="0.65" />
<path d="M 298.6 177.9 L 296.8 187.7" opacity="0.65" />
<path d="M 295.8 176.8 L 290.5 185.3" opacity="0.65" />
<path d="M 293.8 175.0 L 286.0 181.3" opacity="0.65" />
<path d="M 292.6 173.0 L 283.3 176.8" opacity="0.65" />
<path d="M 292.0 170.5 L 282.0 171.1" opacity="0.65" />
<path d="M 292.5 167.2 L 283.1 163.8" opacity="0.65" />
<path d="M 294.4 164.3 L 287.3 157.2" opacity="0.65" />
<path d="M 296.2 163.0 L 291.4 154.2" opacity="0.65" />
<path d="M 297.9 162.3 L 295.3 152.6" opacity="0.65" />
<path d="M 301.9 162.2 L 304.3 152.5" opacity="0.65" />
<path d="M 304.3 163.3 L 309.7 154.9" opacity="0.65" />
<path d="M 306.5 165.4 L 314.7 159.6" opacity="0.65" />
<path d="M 307.3 166.8 L 316.5 162.8" opacity="0.65" />
<path d="M 560.0 170.0 C 547.9 168.7 527.1 139.0 541.6 119.3 C 565.3 125.1 568.4 161.2 560.0 170.0 Z" />
<path d="M 557.4 168.1 C 557.7 165.1 552.9 155.0 552.0 153.6" opacity="0.55" />
<path d="M 559.1 167.5 C 558.2 164.9 552.7 150.0 552.2 148.5" opacity="0.55" />
<path d="M 560.7 166.9 C 558.6 164.8 552.6 145.0 552.4 143.4" opacity="0.55" />
<path d="M 560.0 170.0 C 549.6 162.8 545.9 127.0 569.2 117.6 C 587.9 134.4 572.2 166.8 560.0 170.0 Z" />
<path d="M 558.7 167.1 C 560.4 164.7 561.2 153.6 561.1 152.0" opacity="0.55" />
<path d="M 560.5 167.4 C 560.9 164.8 563.6 149.3 563.9 147.7" opacity="0.55" />
<path d="M 562.3 167.7 C 561.5 164.9 566.1 145.0 566.7 143.5" opacity="0.55" />
<path d="M 560.0 170.0 C 553.2 157.8 565.5 125.8 592.0 131.8 C 602.5 156.9 573.2 174.6 560.0 170.0 Z" />
<path d="M 560.0 166.8 C 562.7 165.8 568.4 157.1 569.1 155.6" opacity="0.55" />
<path d="M 561.6 168.1 C 563.2 166.2 572.7 154.9 573.6 153.8" opacity="0.55" />
<path d="M 563.2 169.4 C 563.7 166.6 576.9 152.8 578.2 151.9" opacity="0.55" />
<path d="M 560.0 170.0 C 560.4 156.9 586.8 136.3 606.0 153.3 C 602.2 178.6 568.7 179.7 560.0 170.0 Z" />
<path d="M 561.6 167.4 C 564.4 167.8 573.5 163.2 574.8 162.4" opacity="0.55" />
<path d="M 562.3 169.2 C 564.6 168.3 578.2 163.4 579.5 162.9" opacity="0.55" />
<path d="M 563.0 171.0 C 564.8 168.9 582.8 163.6 584.3 163.4" opacity="0.55" />
<path d="M 560.0 170.0 C 567.4 159.7 604.1 156.3 613.9 179.5 C 596.8 198.0 563.4 182.2 560.0 170.0 Z" />
<path d="M 563.0 168.7 C 565.5 170.4 576.9 171.3 578.5 171.2" opacity="0.55" />
<path d="M 562.7 170.5 C 565.4 171.0 581.3 173.8 582.9 174.0" opacity="0.55" />
<path d="M 562.4 172.3 C 565.3 171.5 585.7 176.2 587.3 176.8" opacity="0.55" />
<path d="M 560.0 170.0 C 572.2 163.2 604.1 175.4 598.1 202.0 C 573.0 212.5 555.4 183.2 560.0 170.0 Z" />
<path d="M 563.2 170.0 C 564.2 172.7 572.9 178.4 574.3 179.0" opacity="0.55" />
<path d="M 561.9 171.6 C 563.8 173.2 575.0 182.6 576.2 183.6" opacity="0.55" />
<path d="M 560.6 173.2 C 563.4 173.7 577.2 186.9 578.1 188.1" opacity="0.55" />
<path d="M 560.0 170.0 C 573.6 170.5 595.2 198.2 577.6 218.3 C 551.2 214.2 549.9 179.1 560.0 170.0 Z" />
<path d="M 562.8 171.7 C 562.3 174.6 567.1 184.2 568.0 185.5" opacity="0.55" />
<path d="M 560.9 172.4 C 561.8 174.8 566.9 189.1 567.5 190.5" opacity="0.55" />
<path d="M 559.0 173.1 C 561.2 175.0 566.8 193.9 566.9 195.5" opacity="0.55" />
<path d="M 560.0 170.0 C 570.7 176.8 575.1 209.5 551.6 217.6 C 532.3 201.9 547.6 172.7 560.0 170.0 Z" />
<path d="M 561.4 172.7 C 559.7 174.9 559.1 184.9 559.2 186.4" opacity="0.55" />
<path d="M 559.6 172.4 C 559.2 174.8 556.7 188.8 556.4 190.2" opacity="0.55" />
<path d="M 557.7 172.1 C 558.6 174.7 554.3 192.7 553.7 194.0" opacity="0.55" />
<path d="M 560.0 170.0 C 566.4 181.8 553.9 213.3 528.2 207.9 C 518.4 183.5 547.2 165.7 560.0 170.0 Z" />
<path d="M 559.9 173.2 C 557.3 174.2 551.6 182.8 551.0 184.2" opacity="0.55" />
<path d="M 558.4 171.9 C 556.8 173.8 547.5 185.0 546.5 186.1" opacity="0.55" />
<path d="M 556.9 170.6 C 556.4 173.4 543.3 187.1 542.0 188.0" opacity="0.55" />
<path d="M 560.0 170.0 C 559.9 184.1 534.1 205.5 514.2 186.7 C 517.3 159.5 550.9 159.2 560.0 170.0 Z" />
<path d="M 558.4 172.8 C 555.6 172.3 546.6 176.9 545.3 177.8" opacity="0.55" />
<path d="M 557.7 170.8 C 555.4 171.7 541.9 176.6 540.5 177.1" opacity="0.55" />
<path d="M 557.0 168.9 C 555.2 171.1 537.3 176.3 535.7 176.4" opacity="0.55" />
<path d="M 560.0 170.0 C 553.0 181.6 520.3 186.8 512.5 161.6 C 528.4 140.6 557.4 156.7 560.0 170.0 Z" />
<path d="M 557.3 171.6 C 555.1 169.8 545.1 169.2 543.6 169.4" opacity="0.55" />
<path d="M 557.6 169.6 C 555.2 169.2 541.2 166.7 539.8 166.4" opacity="0.55" />
<path d="M 558.0 167.6 C 555.4 168.6 537.4 164.2 536.0 163.5" opacity="0.55" />
<path d="M 560.0 170.0 C 548.9 175.7 518.6 163.0 523.0 139.0 C 545.9 130.5 563.7 158.1 560.0 170.0 Z" />
<path d="M 557.0 169.8 C 556.0 167.3 547.6 161.7 546.2 161.1" opacity="0.55" />
<path d="M 558.2 168.4 C 556.3 166.9 545.4 157.8 544.3 156.8" opacity="0.55" />
<path d="M 559.3 167.1 C 556.7 166.5 543.2 153.8 542.4 152.6" opacity="0.55" />
<path d="M 560.0 170.0 C 547.6 168.7 526.5 138.7 541.4 118.8 C 565.5 124.5 568.7 161.1 560.0 170.0 Z" />
<path d="M 557.4 168.1 C 557.6 165.1 552.8 154.8 551.9 153.4" opacity="0.55" />
<path d="M 559.1 167.4 C 558.1 164.9 552.6 149.8 552.1 148.3" opacity="0.55" />
<path d="M 560.7 166.8 C 558.6 164.7 552.5 144.8 552.3 143.1" opacity="0.55" />
<path d="M 560.0 170.0 C 551.0 166.3 542.7 142.6 560.0 133.5 C 577.3 142.6 569.0 166.3 560.0 170.0 Z" />
<path d="M 559.0 168.2 C 559.7 166.3 559.1 157.7 559.0 156.6" opacity="0.55" />
<path d="M 561.0 168.2 C 560.3 166.3 560.9 153.4 561.0 152.4" opacity="0.55" />
<path d="M 560.0 170.0 C 555.1 162.9 561.0 138.2 578.7 137.5 C 587.1 153.2 568.6 170.7 560.0 170.0 Z" />
<path d="M 560.2 168.0 C 561.7 166.6 565.7 158.7 566.1 157.6" opacity="0.55" />
<path d="M 561.7 168.8 C 562.1 166.9 569.1 155.7 569.8 154.8" opacity="0.55" />
<path d="M 560.0 170.0 C 559.5 161.1 578.5 141.5 594.9 149.8 C 593.9 168.2 567.5 174.9 560.0 170.0 Z" />
<path d="M 561.3 168.3 C 563.4 167.8 571.4 162.5 572.3 161.8" opacity="0.55" />
<path d="M 562.2 169.7 C 563.6 168.2 576.2 161.5 577.4 161.1" opacity="0.55" />
<path d="M 560.0 170.0 C 563.6 161.7 586.9 153.9 595.8 170.0 C 586.9 186.1 563.6 178.3 560.0 170.0 Z" />
<path d="M 561.8 169.1 C 563.6 169.7 572.1 169.2 573.1 169.0" opacity="0.55" />
<path d="M 561.8 170.9 C 563.6 170.3 576.2 170.8 577.3 171.0" opacity="0.55" />
<path d="M 560.0 170.0 C 567.9 164.1 593.8 169.3 593.4 189.3 C 576.3 199.6 558.8 179.8 560.0 170.0 Z" />
<path d="M 562.2 170.1 C 563.5 171.7 571.7 175.7 572.8 176.2" opacity="0.55" />
<path d="M 561.2 171.8 C 563.2 172.2 574.7 179.5 575.6 180.2" opacity="0.55" />
<path d="M 560.0 170.0 C 569.0 169.0 587.5 185.5 578.1 201.3 C 559.7 201.5 554.6 177.3 560.0 170.0 Z" />
<path d="M 561.7 171.1 C 562.0 173.0 566.8 180.2 567.5 181.0" opacity="0.55" />
<path d="M 560.1 172.0 C 561.6 173.3 567.5 184.6 567.9 185.6" opacity="0.55" />
<path d="M 560.0 170.0 C 568.5 173.6 576.4 196.8 560.0 205.8 C 543.6 196.8 551.5 173.6 560.0 170.0 Z" />
<path d="M 560.9 171.8 C 560.3 173.6 560.8 182.0 561.0 183.1" opacity="0.55" />
<path d="M 559.1 171.8 C 559.7 173.6 559.2 186.2 559.0 187.3" opacity="0.55" />
<path d="M 560.0 170.0 C 565.9 177.9 560.4 204.2 540.4 204.0 C 530.2 186.8 550.2 168.9 560.0 170.0 Z" />
<path d="M 559.8 172.2 C 558.3 173.5 554.1 181.9 553.7 183.0" opacity="0.55" />
<path d="M 558.2 171.2 C 557.8 173.3 550.3 185.0 549.6 185.9" opacity="0.55" />
<path d="M 560.0 170.0 C 561.1 179.9 542.8 200.1 525.4 190.0 C 525.3 169.8 552.0 164.1 560.0 170.0 Z" />
<path d="M 558.8 171.8 C 556.7 172.2 548.8 177.5 547.9 178.2" opacity="0.55" />
<path d="M 557.8 170.2 C 556.4 171.7 543.9 178.3 542.8 178.7" opacity="0.55" />
<path d="M 560.0 170.0 C 556.0 179.0 530.2 187.3 520.3 170.0 C 530.2 152.7 556.0 161.0 560.0 170.0 Z" />
<path d="M 558.0 171.0 C 556.0 170.3 546.6 170.9 545.4 171.0" opacity="0.55" />
<path d="M 558.0 169.0 C 556.0 169.7 542.0 169.1 540.8 169.0" opacity="0.55" />
<path d="M 560.0 170.0 C 552.7 175.1 527.6 169.4 527.2 151.1 C 543.2 142.2 560.8 161.1 560.0 170.0 Z" />
<path d="M 557.9 169.8 C 556.6 168.3 548.6 164.3 547.5 163.9" opacity="0.55" />
<path d="M 558.8 168.3 C 556.8 167.9 545.5 160.7 544.6 160.0" opacity="0.55" />
<path d="M 560.0 170.0 C 550.9 170.8 531.6 152.8 540.6 136.4 C 559.3 136.8 565.2 162.5 560.0 170.0 Z" />
<path d="M 558.3 168.8 C 557.8 166.8 552.8 159.1 552.1 158.2" opacity="0.55" />
<path d="M 559.8 167.9 C 558.3 166.5 551.9 154.4 551.5 153.3" opacity="0.55" />
<path d="M 560.0 170.0 C 554.9 165.9 553.6 148.1 566.7 144.9 C 576.5 154.2 566.5 169.0 560.0 170.0 Z" />
<path d="M 560.0 170.0 C 559.1 163.8 571.0 148.8 583.1 153.8 C 583.7 166.9 565.5 173.0 560.0 170.0 Z" />
<path d="M 560.0 170.0 C 563.2 164.3 581.5 160.1 587.3 172.4 C 579.5 183.5 562.2 176.1 560.0 170.0 Z" />
<path d="M 560.0 170.0 C 565.9 168.0 582.3 176.6 579.2 189.2 C 566.6 192.3 558.0 175.9 560.0 170.0 Z" />
<path d="M 560.0 170.0 C 566.0 172.3 573.2 190.3 562.5 198.4 C 550.5 192.3 554.5 173.3 560.0 170.0 Z" />
<path d="M 560.0 170.0 C 563.3 175.7 557.8 193.6 544.2 192.5 C 538.5 180.1 553.5 168.8 560.0 170.0 Z" />
<path d="M 560.0 170.0 C 559.1 176.6 544.5 186.7 535.1 176.7 C 538.2 163.3 555.9 164.8 560.0 170.0 Z" />
<path d="M 560.0 170.0 C 555.3 173.9 537.6 171.6 536.3 159.0 C 546.8 151.8 560.0 163.9 560.0 170.0 Z" />
<path d="M 560.0 170.0 C 553.8 170.0 541.7 157.2 549.1 146.6 C 561.9 147.7 564.0 165.3 560.0 170.0 Z" />
<path d="M 564.4 169.6 L 569.9 169.2" opacity="0.65" />
<path d="M 564.1 171.6 L 569.2 173.6" opacity="0.65" />
<path d="M 563.4 172.8 L 567.6 176.4" opacity="0.65" />
<path d="M 561.8 174.0 L 564.1 179.0" opacity="0.65" />
<path d="M 560.4 174.4 L 560.8 179.9" opacity="0.65" />
<path d="M 558.8 174.2 L 557.3 179.5" opacity="0.65" />
<path d="M 558.0 173.9 L 555.5 178.8" opacity="0.65" />
<path d="M 556.7 172.9 L 552.5 176.5" opacity="0.65" />
<path d="M 555.9 171.7 L 550.9 173.9" opacity="0.65" />
<path d="M 555.6 169.9 L 550.1 169.8" opacity="0.65" />
<path d="M 555.9 168.4 L 550.8 166.4" opacity="0.65" />
<path d="M 556.8 167.0 L 552.8 163.2" opacity="0.65" />
<path d="M 558.0 166.1 L 555.4 161.2" opacity="0.65" />
<path d="M 559.0 165.7 L 557.8 160.4" opacity="0.65" />
<path d="M 560.7 165.7 L 561.6 160.2" opacity="0.65" />
<path d="M 562.2 166.2 L 565.0 161.5" opacity="0.65" />
<path d="M 563.1 166.8 L 566.9 162.9" opacity="0.65" />
<path d="M 564.0 168.1 L 568.9 165.7" opacity="0.65" />
<path d="M 520 220 C 540 210 552 198 560 185" opacity="0.8"/>
</svg>