<svg xmlns="http://www.w3.org/2000/svg" viewBox="0 0 400 400" fill="none" stroke="currentColor" stroke-width="1.25" stroke-linecap="round" stroke-linejoin="round">
<path d="M 200.0 210.0 C 179.7 209.2 147.4 167.6 173.6 137.5 C 213.0 143.7 215.1 196.3 200.0 210.0 Z" />
<path d="M 195.9 207.4 C 196.5 203.1 189.4 188.6 188.0 186.7" opacity="0.55" />
<path d="M 198.7 206.4 C 197.4 202.7 189.6 181.4 188.8 179.2" opacity="0.55" />
<path d="M 201.5 205.3 C 198.2 202.4 189.8 174.1 189.6 171.7" opacity="0.55" />
<path d="M 200.0 210.0 C 182.6 198.9 175.4 145.7 213.7 132.4 C 245.1 158.0 220.1 205.6 200.0 210.0 Z" />
<path d="M 197.7 205.6 C 200.5 202.1 201.5 185.7 201.3 183.2" opacity="0.55" />
<path d="M 200.7 206.1 C 201.4 202.2 205.4 179.4 205.8 177.0" opacity="0.55" />
<path d="M 203.7 206.6 C 202.3 202.4 209.3 173.0 210.3 170.8" opacity="0.55" />
<path d="M 200.0 210.0 C 192.3 192.8 215.4 142.8 252.6 147.3 C 263.5 183.2 218.2 214.6 200.0 210.0 Z" />
<path d="M 200.6 205.1 C 204.6 203.2 214.3 189.2 215.5 186.9" opacity="0.55" />
<path d="M 202.6 206.9 C 205.3 203.7 220.8 185.2 222.4 183.3" opacity="0.55" />
<path d="M 204.7 208.6 C 205.9 204.2 227.3 181.3 229.2 179.8" opacity="0.55" />
<path d="M 200.0 210.0 C 200.2 188.7 239.8 156.1 270.0 184.5 C 265.1 225.7 213.8 226.2 200.0 210.0 Z" />
<path d="M 202.4 205.7 C 206.7 206.6 220.5 199.5 222.4 198.1" opacity="0.55" />
<path d="M 203.5 208.7 C 207.0 207.5 227.6 199.9 229.7 199.2" opacity="0.55" />
<path d="M 204.6 211.7 C 207.3 208.3 234.7 200.4 237.1 200.2" opacity="0.55" />
<path d="M 200.0 210.0 C 210.7 194.0 262.9 187.9 276.3 223.4 C 251.5 252.2 204.6 228.7 200.0 210.0 Z" />
<path d="M 204.3 207.9 C 207.8 210.5 223.9 211.7 226.3 211.5" opacity="0.55" />
<path d="M 203.8 210.7 C 207.6 211.3 230.1 215.3 232.4 215.7" opacity="0.55" />
<path d="M 203.3 213.4 C 207.5 212.2 236.4 219.0 238.5 219.9" opacity="0.55" />
<path d="M 200.0 210.0 C 218.5 201.4 271.7 225.3 266.1 265.5 C 227.5 278.0 194.7 229.8 200.0 210.0 Z" />
<path d="M 205.2 210.5 C 207.2 214.9 222.0 225.0 224.4 226.2" opacity="0.55" />
<path d="M 203.3 212.8 C 206.6 215.6 226.1 231.9 228.1 233.6" opacity="0.55" />
<path d="M 201.4 215.0 C 206.0 216.2 230.2 238.8 231.8 240.9" opacity="0.55" />
<path d="M 200.0 210.0 C 220.3 211.6 254.0 257.7 228.9 289.3 C 189.3 281.3 185.4 224.3 200.0 210.0 Z" />
<path d="M 204.2 213.0 C 203.7 217.6 211.4 233.5 212.8 235.7" opacity="0.55" />
<path d="M 201.4 214.0 C 202.9 217.9 211.4 241.3 212.3 243.7" opacity="0.55" />
<path d="M 198.7 215.0 C 202.1 218.2 211.4 249.2 211.7 251.8" opacity="0.55" />
<path d="M 200.0 210.0 C 215.6 221.1 220.9 276.2 185.8 290.8 C 157.8 265.0 181.6 215.1 200.0 210.0 Z" />
<path d="M 202.0 214.5 C 199.4 218.2 198.1 235.3 198.2 237.8" opacity="0.55" />
<path d="M 199.3 214.0 C 198.6 218.1 194.4 241.9 193.9 244.3" opacity="0.55" />
<path d="M 196.6 213.6 C 197.8 217.9 190.7 248.5 189.7 250.9" opacity="0.55" />
<path d="M 200.0 210.0 C 210.1 229.2 189.0 281.1 147.3 272.8 C 131.9 233.1 179.3 203.4 200.0 210.0 Z" />
<path d="M 199.8 215.2 C 195.5 216.9 186.0 231.2 184.9 233.5" opacity="0.55" />
<path d="M 197.4 213.1 C 194.7 216.3 179.2 234.8 177.6 236.7" opacity="0.55" />
<path d="M 194.9 211.1 C 194.0 215.7 172.4 238.5 170.3 239.9" opacity="0.55" />
<path d="M 200.0 210.0 C 199.1 231.2 155.6 264.8 124.2 237.6 C 130.7 196.5 185.7 194.3 200.0 210.0 Z" />
<path d="M 197.3 214.3 C 192.7 213.6 177.7 221.1 175.6 222.5" opacity="0.55" />
<path d="M 196.2 211.4 C 192.4 212.8 170.1 220.9 167.8 221.7" opacity="0.55" />
<path d="M 195.1 208.4 C 192.1 211.9 162.5 220.7 160.0 220.9" opacity="0.55" />
<path d="M 200.0 210.0 C 188.9 225.3 133.7 230.2 118.8 195.7 C 144.6 168.3 194.8 191.9 200.0 210.0 Z" />
<path d="M 195.5 211.9 C 191.7 209.4 174.6 208.0 172.1 208.1" opacity="0.55" />
<path d="M 195.9 209.3 C 191.9 208.6 167.9 204.3 165.5 203.9" opacity="0.55" />
<path d="M 196.4 206.6 C 192.0 207.8 161.3 200.7 158.9 199.7" opacity="0.55" />
<path d="M 200.0 210.0 C 181.4 219.2 129.4 196.8 136.1 156.3 C 174.7 142.7 205.8 190.1 200.0 210.0 Z" />
<path d="M 194.9 209.6 C 193.0 205.3 178.6 195.6 176.3 194.4" opacity="0.55" />
<path d="M 196.8 207.3 C 193.6 204.6 174.7 188.8 172.8 187.2" opacity="0.55" />
<path d="M 198.7 205.0 C 194.2 203.9 170.9 182.0 169.4 180.0" opacity="0.55" />
<path d="M 200.0 210.0 C 181.5 208.4 150.7 165.7 173.3 136.8 C 209.3 144.4 213.1 196.9 200.0 210.0 Z" />
<path d="M 196.2 207.3 C 196.6 203.0 189.5 188.3 188.2 186.3" opacity="0.55" />
<path d="M 198.7 206.3 C 197.3 202.7 189.5 181.1 188.7 178.9" opacity="0.55" />
<path d="M 201.2 205.4 C 198.1 202.4 189.4 173.8 189.1 171.5" opacity="0.55" />
<path d="M 200.0 210.0 C 186.8 203.9 174.5 163.9 200.0 148.6 C 225.5 163.9 213.2 203.9 200.0 210.0 Z" />
<path d="M 198.6 206.9 C 199.6 203.9 198.7 189.3 198.5 187.5" opacity="0.55" />
<path d="M 201.4 206.9 C 200.4 203.9 201.3 182.1 201.5 180.3" opacity="0.55" />
<path d="M 200.0 210.0 C 190.6 197.6 198.6 156.9 230.2 157.7 C 246.6 184.7 215.5 212.0 200.0 210.0 Z" />
<path d="M 200.2 206.6 C 202.6 204.5 209.0 191.7 209.6 190.0" opacity="0.55" />
<path d="M 202.8 208.1 C 203.4 205.0 214.9 187.0 216.0 185.6" opacity="0.55" />
<path d="M 200.0 210.0 C 198.0 194.4 225.2 163.2 252.2 179.8 C 253.2 211.6 212.5 219.5 200.0 210.0 Z" />
<path d="M 201.8 207.2 C 205.0 206.6 216.9 198.6 218.3 197.5" opacity="0.55" />
<path d="M 203.4 209.8 C 205.5 207.4 224.4 197.5 226.1 196.9" opacity="0.55" />
<path d="M 200.0 210.0 C 205.8 195.8 243.5 182.7 258.0 210.0 C 243.5 237.3 205.8 224.2 200.0 210.0 Z" />
<path d="M 202.9 208.5 C 205.8 209.5 219.5 208.6 221.3 208.3" opacity="0.55" />
<path d="M 202.9 211.5 C 205.8 210.5 226.3 211.4 228.0 211.7" opacity="0.55" />
<path d="M 200.0 210.0 C 212.3 200.3 251.9 207.6 250.5 239.2 C 223.9 256.2 197.8 225.5 200.0 210.0 Z" />
<path d="M 203.3 210.1 C 205.3 212.5 217.7 218.6 219.4 219.2" opacity="0.55" />
<path d="M 201.8 212.8 C 204.8 213.3 222.2 224.4 223.6 225.6" opacity="0.55" />
<path d="M 200.0 210.0 C 213.6 209.2 243.4 238.2 230.8 263.3 C 202.7 261.7 192.5 221.4 200.0 210.0 Z" />
<path d="M 202.7 212.0 C 203.4 215.1 211.4 227.4 212.5 228.8" opacity="0.55" />
<path d="M 200.4 213.3 C 202.7 215.5 212.9 234.7 213.6 236.5" opacity="0.55" />
<path d="M 200.0 210.0 C 212.5 215.6 224.1 252.1 200.0 266.1 C 175.9 252.1 187.5 215.6 200.0 210.0 Z" />
<path d="M 201.3 212.8 C 200.4 215.6 201.2 228.9 201.5 230.6" opacity="0.55" />
<path d="M 198.7 212.8 C 199.6 215.6 198.8 235.4 198.5 237.1" opacity="0.55" />
<path d="M 200.0 210.0 C 208.3 222.0 198.6 263.0 168.9 263.8 C 154.7 237.7 185.5 208.8 200.0 210.0 Z" />
<path d="M 199.7 213.4 C 197.3 215.6 190.6 228.8 189.9 230.5" opacity="0.55" />
<path d="M 197.2 212.0 C 196.5 215.2 184.8 233.8 183.6 235.3" opacity="0.55" />
<path d="M 200.0 210.0 C 201.2 224.0 173.5 253.7 148.3 239.8 C 148.9 211.1 188.4 201.9 200.0 210.0 Z" />
<path d="M 198.1 212.7 C 195.0 213.3 183.2 221.1 181.8 222.2" opacity="0.55" />
<path d="M 196.7 210.3 C 194.6 212.6 176.0 222.5 174.3 223.1" opacity="0.55" />
<path d="M 200.0 210.0 C 194.1 223.0 155.9 235.1 141.2 210.0 C 155.9 184.9 194.1 197.0 200.0 210.0 Z" />
<path d="M 197.1 211.4 C 194.1 210.4 180.2 211.2 178.4 211.5" opacity="0.55" />
<path d="M 197.1 208.6 C 194.1 209.6 173.3 208.8 171.6 208.5" opacity="0.55" />
<path d="M 200.0 210.0 C 188.2 218.9 149.5 211.0 150.1 181.2 C 175.6 165.7 201.8 195.4 200.0 210.0 Z" />
<path d="M 196.8 209.8 C 194.8 207.5 182.5 201.4 180.9 200.8" opacity="0.55" />
<path d="M 198.2 207.3 C 195.2 206.7 178.0 195.8 176.7 194.7" opacity="0.55" />
<path d="M 200.0 210.0 C 184.5 212.1 153.6 185.4 170.3 158.6 C 201.9 157.5 209.6 197.6 200.0 210.0 Z" />
<path d="M 197.2 208.2 C 196.6 205.1 188.8 193.4 187.7 192.0" opacity="0.55" />
<path d="M 199.8 206.7 C 197.4 204.6 187.7 186.0 187.1 184.3" opacity="0.55" />
<path d="M 200.0 210.0 C 191.3 203.2 188.9 173.8 211.1 168.7 C 227.7 184.2 210.9 208.5 200.0 210.0 Z" />
<path d="M 200.0 210.0 C 197.7 199.1 215.1 174.6 235.7 185.0 C 238.4 207.9 209.5 215.9 200.0 210.0 Z" />
<path d="M 200.0 210.0 C 205.0 201.7 233.4 195.6 242.6 213.7 C 230.4 230.0 203.5 219.1 200.0 210.0 Z" />
<path d="M 200.0 210.0 C 210.3 205.9 237.4 218.8 230.8 240.8 C 208.8 247.4 195.9 220.3 200.0 210.0 Z" />
<path d="M 200.0 210.0 C 209.8 213.5 221.6 241.1 203.8 253.6 C 184.1 244.3 190.9 215.2 200.0 210.0 Z" />
<path d="M 200.0 210.0 C 204.8 218.6 195.8 246.4 175.4 245.2 C 167.2 226.4 190.3 208.5 200.0 210.0 Z" />
<path d="M 200.0 210.0 C 198.3 220.3 173.4 236.6 158.0 221.2 C 163.7 200.3 193.3 202.0 200.0 210.0 Z" />
<path d="M 200.0 210.0 C 192.7 216.0 165.0 212.3 162.8 192.7 C 179.3 181.7 199.9 200.5 200.0 210.0 Z" />
<path d="M 200.0 210.0 C 188.9 210.4 167.8 189.0 181.6 170.5 C 204.6 171.8 207.5 201.7 200.0 210.0 Z" />
<path d="M 206.8 209.4 L 215.2 208.7" opacity="0.65" />
<path d="M 206.2 212.7 L 214.0 216.1" opacity="0.65" />
<path d="M 205.3 214.3 L 211.9 219.6" opacity="0.65" />
<path d="M 203.8 215.6 L 208.6 222.7" opacity="0.65" />
<path d="M 201.5 216.6 L 203.3 224.9" opacity="0.65" />
<path d="M 198.4 216.6 L 196.5 224.9" opacity="0.65" />
<path d="M 196.2 215.6 L 191.3 222.6" opacity="0.65" />
<path d="M 195.2 214.8 L 189.3 220.9" opacity="0.65" />
<path d="M 193.6 212.2 L 185.5 214.9" opacity="0.65" />
<path d="M 193.2 210.6 L 184.8 211.5" opacity="0.65" />
<path d="M 193.7 207.4 L 185.9 204.1" opacity="0.65" />
<path d="M 194.6 205.8 L 187.9 200.6" opacity="0.65" />
<path d="M 197.1 203.9 L 193.4 196.2" opacity="0.65" />
<path d="M 199.5 203.2 L 198.9 194.7" opacity="0.65" />
<path d="M 201.2 203.3 L 202.7 194.9" opacity="0.65" />
<path d="M 204.0 204.5 L 209.0 197.6" opacity="0.65" />
<path d="M 205.0 205.4 L 211.3 199.7" opacity="0.65" />
<path d="M 206.2 207.1 L 213.9 203.5" opacity="0.65" />
<path d="M 170 270 C 130 265 105 245 90 215 C 120 225 150 240 178 258" opacity="0.75"/>
<path d="M 230 270 C 270 265 295 245 310 215 C 280 225 250 240 222 258" opacity="0.75"/>
</svg>