<svg xmlns="http://www.w3.org/2000/svg" viewBox="0 0 800 400" fill="none" stroke="currentColor" stroke-width="1.4" stroke-linecap="round" stroke-linejoin="round">
<path d="M 350 230 C 300 215 265 205 240 200 C 210 194 185 205 160 228" />
<path d="M 207.5 155.7 Q 205.4 121.2 220.0 92.0 Q 234.6 121.2 232.5 155.7 Q 220.0 200.0 207.5 155.7 Z" />
<path d="M 235.9 156.8 Q 254.5 127.7 283.5 112.6 Q 278.1 144.9 256.1 171.5 Q 220.0 200.0 235.9 156.8 Z" />
<path d="M 258.2 174.4 Q 290.4 161.8 322.7 166.6 Q 299.4 189.6 266.0 198.2 Q 220.0 200.0 258.2 174.4 Z" />
<path d="M 266.0 201.8 Q 299.4 210.4 322.7 233.4 Q 290.4 238.2 258.2 225.6 Q 220.0 200.0 266.0 201.8 Z" />
<path d="M 256.1 228.5 Q 278.1 255.1 283.5 287.4 Q 254.5 272.3 235.9 243.2 Q 220.0 200.0 256.1 228.5 Z" />
<path d="M 232.5 244.3 Q 234.6 278.8 220.0 308.0 Q 205.4 278.8 207.5 244.3 Q 220.0 200.0 232.5 244.3 Z" />
<path d="M 204.1 243.2 Q 185.5 272.3 156.5 287.4 Q 161.9 255.1 183.9 228.5 Q 220.0 200.0 204.1 243.2 Z" />
<path d="M 181.8 225.6 Q 149.6 238.2 117.3 233.4 Q 140.6 210.4 174.0 201.8 Q 220.0 200.0 181.8 225.6 Z" />
<path d="M 174.0 198.2 Q 140.6 189.6 117.3 166.6 Q 149.6 161.8 181.8 174.4 Q 220.0 200.0 174.0 198.2 Z" />
<path d="M 183.9 171.5 Q 161.9 144.9 156.5 112.6 Q 185.5 127.7 204.1 156.8 Q 220.0 200.0 183.9 171.5 Z" />
<path d="M 217.4 174.1 Q 219.1 147.6 230.5 130.8 Q 236.3 150.2 230.1 176.1 Q 220.0 200.0 217.4 174.1 Z" />
<path d="M 236.5 179.9 Q 256.4 162.3 276.3 158.5 Q 266.7 176.3 244.1 190.2 Q 220.0 200.0 236.5 179.9 Z" />
<path d="M 245.9 197.4 Q 272.4 199.1 289.2 210.5 Q 269.8 216.3 243.9 210.1 Q 220.0 200.0 245.9 197.4 Z" />
<path d="M 240.1 216.5 Q 257.7 236.4 261.5 256.3 Q 243.7 246.7 229.8 224.1 Q 220.0 200.0 240.1 216.5 Z" />
<path d="M 222.6 225.9 Q 220.9 252.4 209.5 269.2 Q 203.7 249.8 209.9 223.9 Q 220.0 200.0 222.6 225.9 Z" />
<path d="M 203.5 220.1 Q 183.6 237.7 163.7 241.5 Q 173.3 223.7 195.9 209.8 Q 220.0 200.0 203.5 220.1 Z" />
<path d="M 194.1 202.6 Q 167.6 200.9 150.8 189.5 Q 170.2 183.7 196.1 189.9 Q 220.0 200.0 194.1 202.6 Z" />
<path d="M 199.9 183.5 Q 182.3 163.6 178.5 143.7 Q 196.3 153.3 210.2 175.9 Q 220.0 200.0 199.9 183.5 Z" />
<path d="M 230.0 200.0 L 244.0 200.0" />
<path d="M 229.0 204.3 L 241.6 210.4" />
<path d="M 226.2 207.8 L 235.0 218.8" />
<path d="M 222.2 209.7 L 225.3 223.4" />
<path d="M 217.8 209.7 L 214.7 223.4" />
<path d="M 213.8 207.8 L 205.0 218.8" />
<path d="M 211.0 204.3 L 198.4 210.4" />
<path d="M 210.0 200.0 L 196.0 200.0" />
<path d="M 211.0 195.7 L 198.4 189.6" />
<path d="M 213.8 192.2 L 205.0 181.2" />
<path d="M 217.8 190.3 L 214.7 176.6" />
<path d="M 222.2 190.3 L 225.3 176.6" />
<path d="M 226.2 192.2 L 235.0 181.2" />
<path d="M 229.0 195.7 L 241.6 189.6" />
<path d="M 124.9 144.8 Q 123.5 130.4 130.0 118.0 Q 136.5 130.4 135.1 144.8 Q 130.0 160.0 124.9 144.8 Z" />
<path d="M 140.6 148.0 Q 152.4 139.6 166.4 139.0 Q 158.9 150.8 145.7 156.8 Q 130.0 160.0 140.6 148.0 Z" />
<path d="M 145.7 163.2 Q 158.9 169.2 166.4 181.0 Q 152.4 180.4 140.6 172.0 Q 130.0 160.0 145.7 163.2 Z" />
<path d="M 135.1 175.2 Q 136.5 189.6 130.0 202.0 Q 123.5 189.6 124.9 175.2 Q 130.0 160.0 135.1 175.2 Z" />
<path d="M 119.4 172.0 Q 107.6 180.4 93.6 181.0 Q 101.1 169.2 114.3 163.2 Q 130.0 160.0 119.4 172.0 Z" />
<path d="M 114.3 156.8 Q 101.1 150.8 93.6 139.0 Q 107.6 139.6 119.4 148.0 Q 130.0 160.0 114.3 156.8 Z" />
<path d="M 420.0 210.0 C 472.8 231.2 518.0 202.5 558.4 189.1 C 515.8 188.2 464.1 174.2 420.0 210.0 Z" />
<path d="M 420.0 210.0 L 558.4 189.1" />
<path d="M 482.3 200.6 l 2.5 16.6" />
<path d="M 482.3 200.6 l -2.5 -16.6" />
<path d="M 510.0 196.4 l 1.6 10.4" />
<path d="M 510.0 196.4 l -1.6 -10.4" />
<path d="M 410.0 250.0 C 449.0 288.4 499.9 280.1 540.8 283.4 C 503.3 266.7 462.6 234.9 410.0 250.0 Z" />
<path d="M 410.0 250.0 L 540.8 283.4" />
<path d="M 468.9 265.0 l -4.0 15.6" />
<path d="M 468.9 265.0 l 4.0 -15.6" />
<path d="M 495.0 271.7 l -2.5 9.8" />
<path d="M 495.0 271.7 l 2.5 -9.8" />
<path d="M 350 230 C 392 235 410 235 430 240" />
</svg>