<svg xmlns="http://www.w3.org/2000/svg" viewBox="0 0 700 500" fill="none" stroke="currentColor" stroke-width="1.4" stroke-linecap="round" stroke-linejoin="round">
<path d="M 80 430 H 620" />
<path d="M 120 390 H 580" />
<path d="M 160 350 H 540" />
<path d="M 330 430 V 350" />
<path d="M 370 430 V 350" />
<path d="M 220 350 H 480 L 455 300 H 245 Z" />
<path d="M 200 300 C 260 255 440 255 500 300" />
<path d="M 215 300 C 265 270 435 270 485 300" />
<path d="M 255 300 H 445 L 425 250 H 275 Z" />
<path d="M 240 250 C 295 205 405 205 460 250" />
<path d="M 255 250 C 300 220 400 220 445 250" />
<path d="M 315 210 C 350 175 350 175 385 210" />
<path d="M 350 175 V 150" />
<circle cx="350" cy="140" r="10" />
<path d="M 260 350 V 300" />
<path d="M 300 350 V 300" />
<path d="M 340 350 V 300" />
<path d="M 380 350 V 300" />
<path d="M 420 350 V 300" />
<path d="M 260 330 H 440" />
</svg>